<mxfile host="Electron" agent="Mozilla/5.0 (Windows NT 10.0; Win64; x64) AppleWebKit/537.36 (KHTML, like Gecko) draw.io/24.7.17 Chrome/128.0.6613.36 Electron/32.0.1 Safari/537.36" version="24.7.17" pages="9">
  <diagram id="Ol4_IuFH5XdzbNeheBoi" name="Diagrama de entidade e relacionamento API_ECOMMERCE">
    <mxGraphModel dx="862" dy="516" grid="0" gridSize="10" guides="1" tooltips="1" connect="1" arrows="1" fold="1" page="1" pageScale="1" pageWidth="827" pageHeight="1169" math="0" shadow="0">
      <root>
        <mxCell id="0" />
        <mxCell id="1" parent="0" />
        <mxCell id="5Wu8TgmjZWv5L9xJ6WQ9-1" value="&lt;h1 style=&quot;margin-top: 0px;&quot;&gt;API_ECOMMERCE&lt;/h1&gt;" style="text;html=1;whiteSpace=wrap;overflow=hidden;rounded=0;" parent="1" vertex="1">
          <mxGeometry x="30" y="25" width="221" height="37" as="geometry" />
        </mxCell>
        <mxCell id="xmKnylQgvVCpeghterkV-1" value="Ordem_Servico" style="swimlane;fontStyle=0;childLayout=stackLayout;horizontal=1;startSize=30;horizontalStack=0;resizeParent=1;resizeParentMax=0;resizeLast=0;collapsible=1;marginBottom=0;whiteSpace=wrap;html=1;" parent="1" vertex="1">
          <mxGeometry x="102" y="119" width="249" height="390" as="geometry" />
        </mxCell>
        <mxCell id="xmKnylQgvVCpeghterkV-2" value="Long id" style="text;strokeColor=none;fillColor=none;align=left;verticalAlign=middle;spacingLeft=4;spacingRight=4;overflow=hidden;points=[[0,0.5],[1,0.5]];portConstraint=eastwest;rotatable=0;whiteSpace=wrap;html=1;" parent="xmKnylQgvVCpeghterkV-1" vertex="1">
          <mxGeometry y="30" width="249" height="30" as="geometry" />
        </mxCell>
        <mxCell id="xmKnylQgvVCpeghterkV-3" value="String nome" style="text;strokeColor=none;fillColor=none;align=left;verticalAlign=middle;spacingLeft=4;spacingRight=4;overflow=hidden;points=[[0,0.5],[1,0.5]];portConstraint=eastwest;rotatable=0;whiteSpace=wrap;html=1;" parent="xmKnylQgvVCpeghterkV-1" vertex="1">
          <mxGeometry y="60" width="249" height="30" as="geometry" />
        </mxCell>
        <mxCell id="xmKnylQgvVCpeghterkV-4" value="String relato" style="text;strokeColor=none;fillColor=none;align=left;verticalAlign=middle;spacingLeft=4;spacingRight=4;overflow=hidden;points=[[0,0.5],[1,0.5]];portConstraint=eastwest;rotatable=0;whiteSpace=wrap;html=1;" parent="xmKnylQgvVCpeghterkV-1" vertex="1">
          <mxGeometry y="90" width="249" height="30" as="geometry" />
        </mxCell>
        <mxCell id="xmKnylQgvVCpeghterkV-13" value="String resolucao" style="text;strokeColor=none;fillColor=none;align=left;verticalAlign=middle;spacingLeft=4;spacingRight=4;overflow=hidden;points=[[0,0.5],[1,0.5]];portConstraint=eastwest;rotatable=0;whiteSpace=wrap;html=1;" parent="xmKnylQgvVCpeghterkV-1" vertex="1">
          <mxGeometry y="120" width="249" height="30" as="geometry" />
        </mxCell>
        <mxCell id="xmKnylQgvVCpeghterkV-5" value="String codigo" style="text;strokeColor=none;fillColor=none;align=left;verticalAlign=middle;spacingLeft=4;spacingRight=4;overflow=hidden;points=[[0,0.5],[1,0.5]];portConstraint=eastwest;rotatable=0;whiteSpace=wrap;html=1;" parent="xmKnylQgvVCpeghterkV-1" vertex="1">
          <mxGeometry y="150" width="249" height="30" as="geometry" />
        </mxCell>
        <mxCell id="xmKnylQgvVCpeghterkV-6" value="ItemOrdemServico servicos" style="text;strokeColor=none;fillColor=none;align=left;verticalAlign=middle;spacingLeft=4;spacingRight=4;overflow=hidden;points=[[0,0.5],[1,0.5]];portConstraint=eastwest;rotatable=0;whiteSpace=wrap;html=1;" parent="xmKnylQgvVCpeghterkV-1" vertex="1">
          <mxGeometry y="180" width="249" height="30" as="geometry" />
        </mxCell>
        <mxCell id="xmKnylQgvVCpeghterkV-7" value="Double valor" style="text;strokeColor=none;fillColor=none;align=left;verticalAlign=middle;spacingLeft=4;spacingRight=4;overflow=hidden;points=[[0,0.5],[1,0.5]];portConstraint=eastwest;rotatable=0;whiteSpace=wrap;html=1;" parent="xmKnylQgvVCpeghterkV-1" vertex="1">
          <mxGeometry y="210" width="249" height="30" as="geometry" />
        </mxCell>
        <mxCell id="xmKnylQgvVCpeghterkV-14" value="STATUSORDEMSERVICO statusAtual" style="text;strokeColor=none;fillColor=none;align=left;verticalAlign=middle;spacingLeft=4;spacingRight=4;overflow=hidden;points=[[0,0.5],[1,0.5]];portConstraint=eastwest;rotatable=0;whiteSpace=wrap;html=1;" parent="xmKnylQgvVCpeghterkV-1" vertex="1">
          <mxGeometry y="240" width="249" height="30" as="geometry" />
        </mxCell>
        <mxCell id="xmKnylQgvVCpeghterkV-8" value="LocalDateTime dataOrdemServico" style="text;strokeColor=none;fillColor=none;align=left;verticalAlign=middle;spacingLeft=4;spacingRight=4;overflow=hidden;points=[[0,0.5],[1,0.5]];portConstraint=eastwest;rotatable=0;whiteSpace=wrap;html=1;" parent="xmKnylQgvVCpeghterkV-1" vertex="1">
          <mxGeometry y="270" width="249" height="30" as="geometry" />
        </mxCell>
        <mxCell id="xmKnylQgvVCpeghterkV-9" value="LocalDateTime dataInicio" style="text;strokeColor=none;fillColor=none;align=left;verticalAlign=middle;spacingLeft=4;spacingRight=4;overflow=hidden;points=[[0,0.5],[1,0.5]];portConstraint=eastwest;rotatable=0;whiteSpace=wrap;html=1;" parent="xmKnylQgvVCpeghterkV-1" vertex="1">
          <mxGeometry y="300" width="249" height="30" as="geometry" />
        </mxCell>
        <mxCell id="xmKnylQgvVCpeghterkV-11" value="LocalDateTime dataConclusao" style="text;strokeColor=none;fillColor=none;align=left;verticalAlign=middle;spacingLeft=4;spacingRight=4;overflow=hidden;points=[[0,0.5],[1,0.5]];portConstraint=eastwest;rotatable=0;whiteSpace=wrap;html=1;" parent="xmKnylQgvVCpeghterkV-1" vertex="1">
          <mxGeometry y="330" width="249" height="30" as="geometry" />
        </mxCell>
        <mxCell id="xmKnylQgvVCpeghterkV-12" value="LocalDateTime timeStampe" style="text;strokeColor=none;fillColor=none;align=left;verticalAlign=middle;spacingLeft=4;spacingRight=4;overflow=hidden;points=[[0,0.5],[1,0.5]];portConstraint=eastwest;rotatable=0;whiteSpace=wrap;html=1;" parent="xmKnylQgvVCpeghterkV-1" vertex="1">
          <mxGeometry y="360" width="249" height="30" as="geometry" />
        </mxCell>
        <mxCell id="9o99a-mNFhGgQ2uLFLD0-1" value="&lt;span style=&quot;text-align: left;&quot;&gt;Item_Ordem_Servico&lt;/span&gt;" style="swimlane;fontStyle=0;childLayout=stackLayout;horizontal=1;startSize=30;horizontalStack=0;resizeParent=1;resizeParentMax=0;resizeLast=0;collapsible=1;marginBottom=0;whiteSpace=wrap;html=1;" parent="1" vertex="1">
          <mxGeometry x="594" y="56" width="196" height="210" as="geometry" />
        </mxCell>
        <mxCell id="9o99a-mNFhGgQ2uLFLD0-2" value="Long id" style="text;strokeColor=none;fillColor=none;align=left;verticalAlign=middle;spacingLeft=4;spacingRight=4;overflow=hidden;points=[[0,0.5],[1,0.5]];portConstraint=eastwest;rotatable=0;whiteSpace=wrap;html=1;" parent="9o99a-mNFhGgQ2uLFLD0-1" vertex="1">
          <mxGeometry y="30" width="196" height="30" as="geometry" />
        </mxCell>
        <mxCell id="9o99a-mNFhGgQ2uLFLD0-3" value="String nome" style="text;strokeColor=none;fillColor=none;align=left;verticalAlign=middle;spacingLeft=4;spacingRight=4;overflow=hidden;points=[[0,0.5],[1,0.5]];portConstraint=eastwest;rotatable=0;whiteSpace=wrap;html=1;" parent="9o99a-mNFhGgQ2uLFLD0-1" vertex="1">
          <mxGeometry y="60" width="196" height="30" as="geometry" />
        </mxCell>
        <mxCell id="9o99a-mNFhGgQ2uLFLD0-4" value="String descricao" style="text;strokeColor=none;fillColor=none;align=left;verticalAlign=middle;spacingLeft=4;spacingRight=4;overflow=hidden;points=[[0,0.5],[1,0.5]];portConstraint=eastwest;rotatable=0;whiteSpace=wrap;html=1;" parent="9o99a-mNFhGgQ2uLFLD0-1" vertex="1">
          <mxGeometry y="90" width="196" height="30" as="geometry" />
        </mxCell>
        <mxCell id="9o99a-mNFhGgQ2uLFLD0-5" value="String codigo" style="text;strokeColor=none;fillColor=none;align=left;verticalAlign=middle;spacingLeft=4;spacingRight=4;overflow=hidden;points=[[0,0.5],[1,0.5]];portConstraint=eastwest;rotatable=0;whiteSpace=wrap;html=1;" parent="9o99a-mNFhGgQ2uLFLD0-1" vertex="1">
          <mxGeometry y="120" width="196" height="30" as="geometry" />
        </mxCell>
        <mxCell id="9o99a-mNFhGgQ2uLFLD0-6" value="Double valor" style="text;strokeColor=none;fillColor=none;align=left;verticalAlign=middle;spacingLeft=4;spacingRight=4;overflow=hidden;points=[[0,0.5],[1,0.5]];portConstraint=eastwest;rotatable=0;whiteSpace=wrap;html=1;" parent="9o99a-mNFhGgQ2uLFLD0-1" vertex="1">
          <mxGeometry y="150" width="196" height="30" as="geometry" />
        </mxCell>
        <mxCell id="9o99a-mNFhGgQ2uLFLD0-8" value="LocalDateTime timeStamp" style="text;strokeColor=none;fillColor=none;align=left;verticalAlign=middle;spacingLeft=4;spacingRight=4;overflow=hidden;points=[[0,0.5],[1,0.5]];portConstraint=eastwest;rotatable=0;whiteSpace=wrap;html=1;" parent="9o99a-mNFhGgQ2uLFLD0-1" vertex="1">
          <mxGeometry y="180" width="196" height="30" as="geometry" />
        </mxCell>
        <mxCell id="9o99a-mNFhGgQ2uLFLD0-19" style="edgeStyle=orthogonalEdgeStyle;rounded=0;orthogonalLoop=1;jettySize=auto;html=1;exitX=0;exitY=0;exitDx=0;exitDy=0;entryX=1;entryY=0.5;entryDx=0;entryDy=0;" parent="1" source="9o99a-mNFhGgQ2uLFLD0-9" target="xmKnylQgvVCpeghterkV-14" edge="1">
          <mxGeometry relative="1" as="geometry">
            <Array as="points">
              <mxPoint x="599" y="315" />
              <mxPoint x="498" y="315" />
              <mxPoint x="498" y="374" />
            </Array>
          </mxGeometry>
        </mxCell>
        <mxCell id="9o99a-mNFhGgQ2uLFLD0-9" value="&lt;span style=&quot;text-align: left;&quot;&gt;STATUSORDEMSERVICO&lt;/span&gt;" style="swimlane;fontStyle=0;childLayout=stackLayout;horizontal=1;startSize=30;horizontalStack=0;resizeParent=1;resizeParentMax=0;resizeLast=0;collapsible=1;marginBottom=0;whiteSpace=wrap;html=1;" parent="1" vertex="1">
          <mxGeometry x="599" y="311" width="196" height="120" as="geometry" />
        </mxCell>
        <mxCell id="9o99a-mNFhGgQ2uLFLD0-10" value="AGUARDANDO" style="text;strokeColor=none;fillColor=none;align=left;verticalAlign=middle;spacingLeft=4;spacingRight=4;overflow=hidden;points=[[0,0.5],[1,0.5]];portConstraint=eastwest;rotatable=0;whiteSpace=wrap;html=1;" parent="9o99a-mNFhGgQ2uLFLD0-9" vertex="1">
          <mxGeometry y="30" width="196" height="30" as="geometry" />
        </mxCell>
        <mxCell id="9o99a-mNFhGgQ2uLFLD0-11" value="INICIADA" style="text;strokeColor=none;fillColor=none;align=left;verticalAlign=middle;spacingLeft=4;spacingRight=4;overflow=hidden;points=[[0,0.5],[1,0.5]];portConstraint=eastwest;rotatable=0;whiteSpace=wrap;html=1;" parent="9o99a-mNFhGgQ2uLFLD0-9" vertex="1">
          <mxGeometry y="60" width="196" height="30" as="geometry" />
        </mxCell>
        <mxCell id="9o99a-mNFhGgQ2uLFLD0-12" value="CONCLUIDO" style="text;strokeColor=none;fillColor=none;align=left;verticalAlign=middle;spacingLeft=4;spacingRight=4;overflow=hidden;points=[[0,0.5],[1,0.5]];portConstraint=eastwest;rotatable=0;whiteSpace=wrap;html=1;" parent="9o99a-mNFhGgQ2uLFLD0-9" vertex="1">
          <mxGeometry y="90" width="196" height="30" as="geometry" />
        </mxCell>
        <mxCell id="9o99a-mNFhGgQ2uLFLD0-16" style="edgeStyle=orthogonalEdgeStyle;rounded=0;orthogonalLoop=1;jettySize=auto;html=1;exitX=1;exitY=0.5;exitDx=0;exitDy=0;entryX=0;entryY=0.5;entryDx=0;entryDy=0;" parent="1" source="xmKnylQgvVCpeghterkV-6" target="9o99a-mNFhGgQ2uLFLD0-2" edge="1">
          <mxGeometry relative="1" as="geometry" />
        </mxCell>
        <mxCell id="9o99a-mNFhGgQ2uLFLD0-17" value="1" style="text;html=1;align=center;verticalAlign=middle;resizable=0;points=[];autosize=1;strokeColor=none;fillColor=none;" parent="1" vertex="1">
          <mxGeometry x="346" y="293" width="25" height="26" as="geometry" />
        </mxCell>
        <mxCell id="9o99a-mNFhGgQ2uLFLD0-18" value="n" style="text;html=1;align=center;verticalAlign=middle;resizable=0;points=[];autosize=1;strokeColor=none;fillColor=none;" parent="1" vertex="1">
          <mxGeometry x="570" y="78" width="25" height="26" as="geometry" />
        </mxCell>
      </root>
    </mxGraphModel>
  </diagram>
  <diagram id="C5RBs43oDa-KdzZeNtuy" name="Diagrama de entidade e relacionamento MS_Cliente">
    <mxGraphModel dx="864" dy="516" grid="0" gridSize="10" guides="1" tooltips="1" connect="1" arrows="1" fold="1" page="1" pageScale="1" pageWidth="827" pageHeight="1169" math="0" shadow="0">
      <root>
        <mxCell id="WIyWlLk6GJQsqaUBKTNV-0" />
        <mxCell id="WIyWlLk6GJQsqaUBKTNV-1" parent="WIyWlLk6GJQsqaUBKTNV-0" />
        <mxCell id="N6-NwjIUcubGqTsg9J4c-9" value="CLiente" style="swimlane;fontStyle=0;childLayout=stackLayout;horizontal=1;startSize=30;horizontalStack=0;resizeParent=1;resizeParentMax=0;resizeLast=0;collapsible=1;marginBottom=0;whiteSpace=wrap;html=1;" parent="WIyWlLk6GJQsqaUBKTNV-1" vertex="1">
          <mxGeometry x="316" y="137" width="196" height="270" as="geometry" />
        </mxCell>
        <mxCell id="N6-NwjIUcubGqTsg9J4c-10" value="Long id" style="text;strokeColor=none;fillColor=none;align=left;verticalAlign=middle;spacingLeft=4;spacingRight=4;overflow=hidden;points=[[0,0.5],[1,0.5]];portConstraint=eastwest;rotatable=0;whiteSpace=wrap;html=1;" parent="N6-NwjIUcubGqTsg9J4c-9" vertex="1">
          <mxGeometry y="30" width="196" height="30" as="geometry" />
        </mxCell>
        <mxCell id="N6-NwjIUcubGqTsg9J4c-11" value="String nome" style="text;strokeColor=none;fillColor=none;align=left;verticalAlign=middle;spacingLeft=4;spacingRight=4;overflow=hidden;points=[[0,0.5],[1,0.5]];portConstraint=eastwest;rotatable=0;whiteSpace=wrap;html=1;" parent="N6-NwjIUcubGqTsg9J4c-9" vertex="1">
          <mxGeometry y="60" width="196" height="30" as="geometry" />
        </mxCell>
        <mxCell id="N6-NwjIUcubGqTsg9J4c-12" value="String sobrenome" style="text;strokeColor=none;fillColor=none;align=left;verticalAlign=middle;spacingLeft=4;spacingRight=4;overflow=hidden;points=[[0,0.5],[1,0.5]];portConstraint=eastwest;rotatable=0;whiteSpace=wrap;html=1;" parent="N6-NwjIUcubGqTsg9J4c-9" vertex="1">
          <mxGeometry y="90" width="196" height="30" as="geometry" />
        </mxCell>
        <mxCell id="N6-NwjIUcubGqTsg9J4c-13" value="LocalDate dataNascimento" style="text;strokeColor=none;fillColor=none;align=left;verticalAlign=middle;spacingLeft=4;spacingRight=4;overflow=hidden;points=[[0,0.5],[1,0.5]];portConstraint=eastwest;rotatable=0;whiteSpace=wrap;html=1;" parent="N6-NwjIUcubGqTsg9J4c-9" vertex="1">
          <mxGeometry y="120" width="196" height="30" as="geometry" />
        </mxCell>
        <mxCell id="N6-NwjIUcubGqTsg9J4c-15" value="Endereco endereco" style="text;strokeColor=none;fillColor=none;align=left;verticalAlign=middle;spacingLeft=4;spacingRight=4;overflow=hidden;points=[[0,0.5],[1,0.5]];portConstraint=eastwest;rotatable=0;whiteSpace=wrap;html=1;" parent="N6-NwjIUcubGqTsg9J4c-9" vertex="1">
          <mxGeometry y="150" width="196" height="30" as="geometry" />
        </mxCell>
        <mxCell id="N6-NwjIUcubGqTsg9J4c-16" value="Contato contato" style="text;strokeColor=none;fillColor=none;align=left;verticalAlign=middle;spacingLeft=4;spacingRight=4;overflow=hidden;points=[[0,0.5],[1,0.5]];portConstraint=eastwest;rotatable=0;whiteSpace=wrap;html=1;" parent="N6-NwjIUcubGqTsg9J4c-9" vertex="1">
          <mxGeometry y="180" width="196" height="30" as="geometry" />
        </mxCell>
        <mxCell id="N6-NwjIUcubGqTsg9J4c-17" value="Double score" style="text;strokeColor=none;fillColor=none;align=left;verticalAlign=middle;spacingLeft=4;spacingRight=4;overflow=hidden;points=[[0,0.5],[1,0.5]];portConstraint=eastwest;rotatable=0;whiteSpace=wrap;html=1;" parent="N6-NwjIUcubGqTsg9J4c-9" vertex="1">
          <mxGeometry y="210" width="196" height="30" as="geometry" />
        </mxCell>
        <mxCell id="zp8qXaAt9pcuHa6xzHq5-0" value="LocalDateTime timeStamp" style="text;strokeColor=none;fillColor=none;align=left;verticalAlign=middle;spacingLeft=4;spacingRight=4;overflow=hidden;points=[[0,0.5],[1,0.5]];portConstraint=eastwest;rotatable=0;whiteSpace=wrap;html=1;" vertex="1" parent="N6-NwjIUcubGqTsg9J4c-9">
          <mxGeometry y="240" width="196" height="30" as="geometry" />
        </mxCell>
        <mxCell id="N6-NwjIUcubGqTsg9J4c-18" value="Endereco" style="swimlane;fontStyle=0;childLayout=stackLayout;horizontal=1;startSize=30;horizontalStack=0;resizeParent=1;resizeParentMax=0;resizeLast=0;collapsible=1;marginBottom=0;whiteSpace=wrap;html=1;" parent="WIyWlLk6GJQsqaUBKTNV-1" vertex="1">
          <mxGeometry x="599" y="463" width="196" height="300" as="geometry" />
        </mxCell>
        <mxCell id="N6-NwjIUcubGqTsg9J4c-19" value="Long id" style="text;strokeColor=none;fillColor=none;align=left;verticalAlign=middle;spacingLeft=4;spacingRight=4;overflow=hidden;points=[[0,0.5],[1,0.5]];portConstraint=eastwest;rotatable=0;whiteSpace=wrap;html=1;" parent="N6-NwjIUcubGqTsg9J4c-18" vertex="1">
          <mxGeometry y="30" width="196" height="30" as="geometry" />
        </mxCell>
        <mxCell id="N6-NwjIUcubGqTsg9J4c-20" value="String logradouro" style="text;strokeColor=none;fillColor=none;align=left;verticalAlign=middle;spacingLeft=4;spacingRight=4;overflow=hidden;points=[[0,0.5],[1,0.5]];portConstraint=eastwest;rotatable=0;whiteSpace=wrap;html=1;" parent="N6-NwjIUcubGqTsg9J4c-18" vertex="1">
          <mxGeometry y="60" width="196" height="30" as="geometry" />
        </mxCell>
        <mxCell id="N6-NwjIUcubGqTsg9J4c-21" value="String numero" style="text;strokeColor=none;fillColor=none;align=left;verticalAlign=middle;spacingLeft=4;spacingRight=4;overflow=hidden;points=[[0,0.5],[1,0.5]];portConstraint=eastwest;rotatable=0;whiteSpace=wrap;html=1;" parent="N6-NwjIUcubGqTsg9J4c-18" vertex="1">
          <mxGeometry y="90" width="196" height="30" as="geometry" />
        </mxCell>
        <mxCell id="N6-NwjIUcubGqTsg9J4c-22" value="String bairro" style="text;strokeColor=none;fillColor=none;align=left;verticalAlign=middle;spacingLeft=4;spacingRight=4;overflow=hidden;points=[[0,0.5],[1,0.5]];portConstraint=eastwest;rotatable=0;whiteSpace=wrap;html=1;" parent="N6-NwjIUcubGqTsg9J4c-18" vertex="1">
          <mxGeometry y="120" width="196" height="30" as="geometry" />
        </mxCell>
        <mxCell id="N6-NwjIUcubGqTsg9J4c-24" value="String referencia" style="text;strokeColor=none;fillColor=none;align=left;verticalAlign=middle;spacingLeft=4;spacingRight=4;overflow=hidden;points=[[0,0.5],[1,0.5]];portConstraint=eastwest;rotatable=0;whiteSpace=wrap;html=1;" parent="N6-NwjIUcubGqTsg9J4c-18" vertex="1">
          <mxGeometry y="150" width="196" height="30" as="geometry" />
        </mxCell>
        <mxCell id="N6-NwjIUcubGqTsg9J4c-25" value="Long cep" style="text;strokeColor=none;fillColor=none;align=left;verticalAlign=middle;spacingLeft=4;spacingRight=4;overflow=hidden;points=[[0,0.5],[1,0.5]];portConstraint=eastwest;rotatable=0;whiteSpace=wrap;html=1;" parent="N6-NwjIUcubGqTsg9J4c-18" vertex="1">
          <mxGeometry y="180" width="196" height="30" as="geometry" />
        </mxCell>
        <mxCell id="N6-NwjIUcubGqTsg9J4c-26" value="String localidade" style="text;strokeColor=none;fillColor=none;align=left;verticalAlign=middle;spacingLeft=4;spacingRight=4;overflow=hidden;points=[[0,0.5],[1,0.5]];portConstraint=eastwest;rotatable=0;whiteSpace=wrap;html=1;" parent="N6-NwjIUcubGqTsg9J4c-18" vertex="1">
          <mxGeometry y="210" width="196" height="30" as="geometry" />
        </mxCell>
        <mxCell id="N6-NwjIUcubGqTsg9J4c-27" value="String uf" style="text;strokeColor=none;fillColor=none;align=left;verticalAlign=middle;spacingLeft=4;spacingRight=4;overflow=hidden;points=[[0,0.5],[1,0.5]];portConstraint=eastwest;rotatable=0;whiteSpace=wrap;html=1;" parent="N6-NwjIUcubGqTsg9J4c-18" vertex="1">
          <mxGeometry y="240" width="196" height="30" as="geometry" />
        </mxCell>
        <mxCell id="N6-NwjIUcubGqTsg9J4c-23" value="LocalDateTime timeStamp" style="text;strokeColor=none;fillColor=none;align=left;verticalAlign=middle;spacingLeft=4;spacingRight=4;overflow=hidden;points=[[0,0.5],[1,0.5]];portConstraint=eastwest;rotatable=0;whiteSpace=wrap;html=1;" parent="N6-NwjIUcubGqTsg9J4c-18" vertex="1">
          <mxGeometry y="270" width="196" height="30" as="geometry" />
        </mxCell>
        <mxCell id="N6-NwjIUcubGqTsg9J4c-28" value="Contato" style="swimlane;fontStyle=0;childLayout=stackLayout;horizontal=1;startSize=30;horizontalStack=0;resizeParent=1;resizeParentMax=0;resizeLast=0;collapsible=1;marginBottom=0;whiteSpace=wrap;html=1;" parent="WIyWlLk6GJQsqaUBKTNV-1" vertex="1">
          <mxGeometry x="44" y="468" width="196" height="180" as="geometry" />
        </mxCell>
        <mxCell id="N6-NwjIUcubGqTsg9J4c-29" value="Long id" style="text;strokeColor=none;fillColor=none;align=left;verticalAlign=middle;spacingLeft=4;spacingRight=4;overflow=hidden;points=[[0,0.5],[1,0.5]];portConstraint=eastwest;rotatable=0;whiteSpace=wrap;html=1;" parent="N6-NwjIUcubGqTsg9J4c-28" vertex="1">
          <mxGeometry y="30" width="196" height="30" as="geometry" />
        </mxCell>
        <mxCell id="N6-NwjIUcubGqTsg9J4c-30" value="String email" style="text;strokeColor=none;fillColor=none;align=left;verticalAlign=middle;spacingLeft=4;spacingRight=4;overflow=hidden;points=[[0,0.5],[1,0.5]];portConstraint=eastwest;rotatable=0;whiteSpace=wrap;html=1;" parent="N6-NwjIUcubGqTsg9J4c-28" vertex="1">
          <mxGeometry y="60" width="196" height="30" as="geometry" />
        </mxCell>
        <mxCell id="N6-NwjIUcubGqTsg9J4c-31" value="Long prefixo" style="text;strokeColor=none;fillColor=none;align=left;verticalAlign=middle;spacingLeft=4;spacingRight=4;overflow=hidden;points=[[0,0.5],[1,0.5]];portConstraint=eastwest;rotatable=0;whiteSpace=wrap;html=1;" parent="N6-NwjIUcubGqTsg9J4c-28" vertex="1">
          <mxGeometry y="90" width="196" height="30" as="geometry" />
        </mxCell>
        <mxCell id="N6-NwjIUcubGqTsg9J4c-32" value="Long telefone" style="text;strokeColor=none;fillColor=none;align=left;verticalAlign=middle;spacingLeft=4;spacingRight=4;overflow=hidden;points=[[0,0.5],[1,0.5]];portConstraint=eastwest;rotatable=0;whiteSpace=wrap;html=1;" parent="N6-NwjIUcubGqTsg9J4c-28" vertex="1">
          <mxGeometry y="120" width="196" height="30" as="geometry" />
        </mxCell>
        <mxCell id="N6-NwjIUcubGqTsg9J4c-33" value="LocalDateTime timeStamp" style="text;strokeColor=none;fillColor=none;align=left;verticalAlign=middle;spacingLeft=4;spacingRight=4;overflow=hidden;points=[[0,0.5],[1,0.5]];portConstraint=eastwest;rotatable=0;whiteSpace=wrap;html=1;" parent="N6-NwjIUcubGqTsg9J4c-28" vertex="1">
          <mxGeometry y="150" width="196" height="30" as="geometry" />
        </mxCell>
        <mxCell id="N6-NwjIUcubGqTsg9J4c-34" value="&lt;h1 style=&quot;margin-top: 0px;&quot;&gt;MS_CLIENTE&lt;/h1&gt;" style="text;html=1;whiteSpace=wrap;overflow=hidden;rounded=0;" parent="WIyWlLk6GJQsqaUBKTNV-1" vertex="1">
          <mxGeometry x="332" y="35" width="180" height="37" as="geometry" />
        </mxCell>
        <mxCell id="N6-NwjIUcubGqTsg9J4c-35" style="edgeStyle=orthogonalEdgeStyle;rounded=0;orthogonalLoop=1;jettySize=auto;html=1;exitX=1;exitY=0.5;exitDx=0;exitDy=0;entryX=0;entryY=0.5;entryDx=0;entryDy=0;" parent="WIyWlLk6GJQsqaUBKTNV-1" source="N6-NwjIUcubGqTsg9J4c-15" target="N6-NwjIUcubGqTsg9J4c-19" edge="1">
          <mxGeometry relative="1" as="geometry" />
        </mxCell>
        <mxCell id="N6-NwjIUcubGqTsg9J4c-36" style="edgeStyle=orthogonalEdgeStyle;rounded=0;orthogonalLoop=1;jettySize=auto;html=1;exitX=0;exitY=0.5;exitDx=0;exitDy=0;entryX=1;entryY=0.5;entryDx=0;entryDy=0;" parent="WIyWlLk6GJQsqaUBKTNV-1" source="N6-NwjIUcubGqTsg9J4c-16" target="N6-NwjIUcubGqTsg9J4c-29" edge="1">
          <mxGeometry relative="1" as="geometry" />
        </mxCell>
        <mxCell id="N6-NwjIUcubGqTsg9J4c-37" value="1" style="text;html=1;align=center;verticalAlign=middle;resizable=0;points=[];autosize=1;strokeColor=none;fillColor=none;" parent="WIyWlLk6GJQsqaUBKTNV-1" vertex="1">
          <mxGeometry x="295" y="312" width="25" height="26" as="geometry" />
        </mxCell>
        <mxCell id="N6-NwjIUcubGqTsg9J4c-38" value="1" style="text;html=1;align=center;verticalAlign=middle;resizable=0;points=[];autosize=1;strokeColor=none;fillColor=none;" parent="WIyWlLk6GJQsqaUBKTNV-1" vertex="1">
          <mxGeometry x="235" y="486" width="25" height="26" as="geometry" />
        </mxCell>
        <mxCell id="N6-NwjIUcubGqTsg9J4c-39" value="1" style="text;html=1;align=center;verticalAlign=middle;resizable=0;points=[];autosize=1;strokeColor=none;fillColor=none;" parent="WIyWlLk6GJQsqaUBKTNV-1" vertex="1">
          <mxGeometry x="506" y="283" width="25" height="26" as="geometry" />
        </mxCell>
        <mxCell id="N6-NwjIUcubGqTsg9J4c-40" value="1" style="text;html=1;align=center;verticalAlign=middle;resizable=0;points=[];autosize=1;strokeColor=none;fillColor=none;" parent="WIyWlLk6GJQsqaUBKTNV-1" vertex="1">
          <mxGeometry x="575" y="485" width="25" height="26" as="geometry" />
        </mxCell>
      </root>
    </mxGraphModel>
  </diagram>
  <diagram id="kPFCzHBD2l03GUT1Jm2d" name="DTOS Ms_Cliente">
    <mxGraphModel dx="864" dy="516" grid="0" gridSize="10" guides="1" tooltips="1" connect="1" arrows="1" fold="1" page="1" pageScale="1" pageWidth="827" pageHeight="1169" math="0" shadow="0">
      <root>
        <mxCell id="0" />
        <mxCell id="1" parent="0" />
        <mxCell id="hkC0dAM3CeLcHydlQ_uw-1" value="ClienteResponseDTO" style="swimlane;fontStyle=0;childLayout=stackLayout;horizontal=1;startSize=30;horizontalStack=0;resizeParent=1;resizeParentMax=0;resizeLast=0;collapsible=1;marginBottom=0;whiteSpace=wrap;html=1;" vertex="1" parent="1">
          <mxGeometry x="46" y="140" width="176" height="450" as="geometry" />
        </mxCell>
        <mxCell id="hkC0dAM3CeLcHydlQ_uw-24" value="Long id" style="text;strokeColor=none;fillColor=none;align=left;verticalAlign=middle;spacingLeft=4;spacingRight=4;overflow=hidden;points=[[0,0.5],[1,0.5]];portConstraint=eastwest;rotatable=0;whiteSpace=wrap;html=1;" vertex="1" parent="hkC0dAM3CeLcHydlQ_uw-1">
          <mxGeometry y="30" width="176" height="30" as="geometry" />
        </mxCell>
        <mxCell id="hkC0dAM3CeLcHydlQ_uw-2" value="String nome" style="text;strokeColor=none;fillColor=none;align=left;verticalAlign=middle;spacingLeft=4;spacingRight=4;overflow=hidden;points=[[0,0.5],[1,0.5]];portConstraint=eastwest;rotatable=0;whiteSpace=wrap;html=1;" vertex="1" parent="hkC0dAM3CeLcHydlQ_uw-1">
          <mxGeometry y="60" width="176" height="30" as="geometry" />
        </mxCell>
        <mxCell id="hkC0dAM3CeLcHydlQ_uw-3" value="String sobrenome" style="text;strokeColor=none;fillColor=none;align=left;verticalAlign=middle;spacingLeft=4;spacingRight=4;overflow=hidden;points=[[0,0.5],[1,0.5]];portConstraint=eastwest;rotatable=0;whiteSpace=wrap;html=1;" vertex="1" parent="hkC0dAM3CeLcHydlQ_uw-1">
          <mxGeometry y="90" width="176" height="30" as="geometry" />
        </mxCell>
        <mxCell id="hkC0dAM3CeLcHydlQ_uw-4" value="LocalDate dataNascimento" style="text;strokeColor=none;fillColor=none;align=left;verticalAlign=middle;spacingLeft=4;spacingRight=4;overflow=hidden;points=[[0,0.5],[1,0.5]];portConstraint=eastwest;rotatable=0;whiteSpace=wrap;html=1;" vertex="1" parent="hkC0dAM3CeLcHydlQ_uw-1">
          <mxGeometry y="120" width="176" height="30" as="geometry" />
        </mxCell>
        <mxCell id="hkC0dAM3CeLcHydlQ_uw-13" value="String logradouro," style="text;strokeColor=none;fillColor=none;align=left;verticalAlign=middle;spacingLeft=4;spacingRight=4;overflow=hidden;points=[[0,0.5],[1,0.5]];portConstraint=eastwest;rotatable=0;whiteSpace=wrap;html=1;" vertex="1" parent="hkC0dAM3CeLcHydlQ_uw-1">
          <mxGeometry y="150" width="176" height="30" as="geometry" />
        </mxCell>
        <mxCell id="hkC0dAM3CeLcHydlQ_uw-14" value="String numero" style="text;strokeColor=none;fillColor=none;align=left;verticalAlign=middle;spacingLeft=4;spacingRight=4;overflow=hidden;points=[[0,0.5],[1,0.5]];portConstraint=eastwest;rotatable=0;whiteSpace=wrap;html=1;" vertex="1" parent="hkC0dAM3CeLcHydlQ_uw-1">
          <mxGeometry y="180" width="176" height="30" as="geometry" />
        </mxCell>
        <mxCell id="hkC0dAM3CeLcHydlQ_uw-15" value="String bairro" style="text;strokeColor=none;fillColor=none;align=left;verticalAlign=middle;spacingLeft=4;spacingRight=4;overflow=hidden;points=[[0,0.5],[1,0.5]];portConstraint=eastwest;rotatable=0;whiteSpace=wrap;html=1;" vertex="1" parent="hkC0dAM3CeLcHydlQ_uw-1">
          <mxGeometry y="210" width="176" height="30" as="geometry" />
        </mxCell>
        <mxCell id="hkC0dAM3CeLcHydlQ_uw-16" value="String referencia" style="text;strokeColor=none;fillColor=none;align=left;verticalAlign=middle;spacingLeft=4;spacingRight=4;overflow=hidden;points=[[0,0.5],[1,0.5]];portConstraint=eastwest;rotatable=0;whiteSpace=wrap;html=1;" vertex="1" parent="hkC0dAM3CeLcHydlQ_uw-1">
          <mxGeometry y="240" width="176" height="30" as="geometry" />
        </mxCell>
        <mxCell id="hkC0dAM3CeLcHydlQ_uw-17" value="String&amp;nbsp; cep" style="text;strokeColor=none;fillColor=none;align=left;verticalAlign=middle;spacingLeft=4;spacingRight=4;overflow=hidden;points=[[0,0.5],[1,0.5]];portConstraint=eastwest;rotatable=0;whiteSpace=wrap;html=1;" vertex="1" parent="hkC0dAM3CeLcHydlQ_uw-1">
          <mxGeometry y="270" width="176" height="30" as="geometry" />
        </mxCell>
        <mxCell id="hkC0dAM3CeLcHydlQ_uw-18" value="String&amp;nbsp; cidade" style="text;strokeColor=none;fillColor=none;align=left;verticalAlign=middle;spacingLeft=4;spacingRight=4;overflow=hidden;points=[[0,0.5],[1,0.5]];portConstraint=eastwest;rotatable=0;whiteSpace=wrap;html=1;" vertex="1" parent="hkC0dAM3CeLcHydlQ_uw-1">
          <mxGeometry y="300" width="176" height="30" as="geometry" />
        </mxCell>
        <mxCell id="hkC0dAM3CeLcHydlQ_uw-19" value="String&amp;nbsp; estado" style="text;strokeColor=none;fillColor=none;align=left;verticalAlign=middle;spacingLeft=4;spacingRight=4;overflow=hidden;points=[[0,0.5],[1,0.5]];portConstraint=eastwest;rotatable=0;whiteSpace=wrap;html=1;" vertex="1" parent="hkC0dAM3CeLcHydlQ_uw-1">
          <mxGeometry y="330" width="176" height="30" as="geometry" />
        </mxCell>
        <mxCell id="hkC0dAM3CeLcHydlQ_uw-21" value="String telefone" style="text;strokeColor=none;fillColor=none;align=left;verticalAlign=middle;spacingLeft=4;spacingRight=4;overflow=hidden;points=[[0,0.5],[1,0.5]];portConstraint=eastwest;rotatable=0;whiteSpace=wrap;html=1;" vertex="1" parent="hkC0dAM3CeLcHydlQ_uw-1">
          <mxGeometry y="360" width="176" height="30" as="geometry" />
        </mxCell>
        <mxCell id="hkC0dAM3CeLcHydlQ_uw-22" value="String email" style="text;strokeColor=none;fillColor=none;align=left;verticalAlign=middle;spacingLeft=4;spacingRight=4;overflow=hidden;points=[[0,0.5],[1,0.5]];portConstraint=eastwest;rotatable=0;whiteSpace=wrap;html=1;" vertex="1" parent="hkC0dAM3CeLcHydlQ_uw-1">
          <mxGeometry y="390" width="176" height="30" as="geometry" />
        </mxCell>
        <mxCell id="hkC0dAM3CeLcHydlQ_uw-23" value="String score" style="text;strokeColor=none;fillColor=none;align=left;verticalAlign=middle;spacingLeft=4;spacingRight=4;overflow=hidden;points=[[0,0.5],[1,0.5]];portConstraint=eastwest;rotatable=0;whiteSpace=wrap;html=1;" vertex="1" parent="hkC0dAM3CeLcHydlQ_uw-1">
          <mxGeometry y="420" width="176" height="30" as="geometry" />
        </mxCell>
        <mxCell id="hkC0dAM3CeLcHydlQ_uw-9" value="CepResultDTO" style="swimlane;fontStyle=0;childLayout=stackLayout;horizontal=1;startSize=30;horizontalStack=0;resizeParent=1;resizeParentMax=0;resizeLast=0;collapsible=1;marginBottom=0;whiteSpace=wrap;html=1;" vertex="1" parent="1">
          <mxGeometry x="518" y="140" width="140" height="330" as="geometry" />
        </mxCell>
        <mxCell id="hkC0dAM3CeLcHydlQ_uw-10" value="String cep" style="text;strokeColor=none;fillColor=none;align=left;verticalAlign=middle;spacingLeft=4;spacingRight=4;overflow=hidden;points=[[0,0.5],[1,0.5]];portConstraint=eastwest;rotatable=0;whiteSpace=wrap;html=1;" vertex="1" parent="hkC0dAM3CeLcHydlQ_uw-9">
          <mxGeometry y="30" width="140" height="30" as="geometry" />
        </mxCell>
        <mxCell id="hkC0dAM3CeLcHydlQ_uw-11" value="String logradouro" style="text;strokeColor=none;fillColor=none;align=left;verticalAlign=middle;spacingLeft=4;spacingRight=4;overflow=hidden;points=[[0,0.5],[1,0.5]];portConstraint=eastwest;rotatable=0;whiteSpace=wrap;html=1;" vertex="1" parent="hkC0dAM3CeLcHydlQ_uw-9">
          <mxGeometry y="60" width="140" height="30" as="geometry" />
        </mxCell>
        <mxCell id="hkC0dAM3CeLcHydlQ_uw-12" value="String complemento" style="text;strokeColor=none;fillColor=none;align=left;verticalAlign=middle;spacingLeft=4;spacingRight=4;overflow=hidden;points=[[0,0.5],[1,0.5]];portConstraint=eastwest;rotatable=0;whiteSpace=wrap;html=1;" vertex="1" parent="hkC0dAM3CeLcHydlQ_uw-9">
          <mxGeometry y="90" width="140" height="30" as="geometry" />
        </mxCell>
        <mxCell id="hkC0dAM3CeLcHydlQ_uw-40" value="String bairro" style="text;strokeColor=none;fillColor=none;align=left;verticalAlign=middle;spacingLeft=4;spacingRight=4;overflow=hidden;points=[[0,0.5],[1,0.5]];portConstraint=eastwest;rotatable=0;whiteSpace=wrap;html=1;" vertex="1" parent="hkC0dAM3CeLcHydlQ_uw-9">
          <mxGeometry y="120" width="140" height="30" as="geometry" />
        </mxCell>
        <mxCell id="hkC0dAM3CeLcHydlQ_uw-41" value="String localidade" style="text;strokeColor=none;fillColor=none;align=left;verticalAlign=middle;spacingLeft=4;spacingRight=4;overflow=hidden;points=[[0,0.5],[1,0.5]];portConstraint=eastwest;rotatable=0;whiteSpace=wrap;html=1;" vertex="1" parent="hkC0dAM3CeLcHydlQ_uw-9">
          <mxGeometry y="150" width="140" height="30" as="geometry" />
        </mxCell>
        <mxCell id="hkC0dAM3CeLcHydlQ_uw-42" value="String uf" style="text;strokeColor=none;fillColor=none;align=left;verticalAlign=middle;spacingLeft=4;spacingRight=4;overflow=hidden;points=[[0,0.5],[1,0.5]];portConstraint=eastwest;rotatable=0;whiteSpace=wrap;html=1;" vertex="1" parent="hkC0dAM3CeLcHydlQ_uw-9">
          <mxGeometry y="180" width="140" height="30" as="geometry" />
        </mxCell>
        <mxCell id="hkC0dAM3CeLcHydlQ_uw-43" value="String ibge" style="text;strokeColor=none;fillColor=none;align=left;verticalAlign=middle;spacingLeft=4;spacingRight=4;overflow=hidden;points=[[0,0.5],[1,0.5]];portConstraint=eastwest;rotatable=0;whiteSpace=wrap;html=1;" vertex="1" parent="hkC0dAM3CeLcHydlQ_uw-9">
          <mxGeometry y="210" width="140" height="30" as="geometry" />
        </mxCell>
        <mxCell id="x2I9E-513XWOUKtgr1tP-1" value="String gia" style="text;strokeColor=none;fillColor=none;align=left;verticalAlign=middle;spacingLeft=4;spacingRight=4;overflow=hidden;points=[[0,0.5],[1,0.5]];portConstraint=eastwest;rotatable=0;whiteSpace=wrap;html=1;" vertex="1" parent="hkC0dAM3CeLcHydlQ_uw-9">
          <mxGeometry y="240" width="140" height="30" as="geometry" />
        </mxCell>
        <mxCell id="x2I9E-513XWOUKtgr1tP-2" value="String ddd" style="text;strokeColor=none;fillColor=none;align=left;verticalAlign=middle;spacingLeft=4;spacingRight=4;overflow=hidden;points=[[0,0.5],[1,0.5]];portConstraint=eastwest;rotatable=0;whiteSpace=wrap;html=1;" vertex="1" parent="hkC0dAM3CeLcHydlQ_uw-9">
          <mxGeometry y="270" width="140" height="30" as="geometry" />
        </mxCell>
        <mxCell id="x2I9E-513XWOUKtgr1tP-3" value="String siafi" style="text;strokeColor=none;fillColor=none;align=left;verticalAlign=middle;spacingLeft=4;spacingRight=4;overflow=hidden;points=[[0,0.5],[1,0.5]];portConstraint=eastwest;rotatable=0;whiteSpace=wrap;html=1;" vertex="1" parent="hkC0dAM3CeLcHydlQ_uw-9">
          <mxGeometry y="300" width="140" height="30" as="geometry" />
        </mxCell>
        <mxCell id="hkC0dAM3CeLcHydlQ_uw-25" value="ClienteDTO" style="swimlane;fontStyle=0;childLayout=stackLayout;horizontal=1;startSize=30;horizontalStack=0;resizeParent=1;resizeParentMax=0;resizeLast=0;collapsible=1;marginBottom=0;whiteSpace=wrap;html=1;" vertex="1" parent="1">
          <mxGeometry x="277" y="140" width="176" height="420" as="geometry" />
        </mxCell>
        <mxCell id="hkC0dAM3CeLcHydlQ_uw-27" value="String nome" style="text;strokeColor=none;fillColor=none;align=left;verticalAlign=middle;spacingLeft=4;spacingRight=4;overflow=hidden;points=[[0,0.5],[1,0.5]];portConstraint=eastwest;rotatable=0;whiteSpace=wrap;html=1;" vertex="1" parent="hkC0dAM3CeLcHydlQ_uw-25">
          <mxGeometry y="30" width="176" height="30" as="geometry" />
        </mxCell>
        <mxCell id="hkC0dAM3CeLcHydlQ_uw-28" value="String sobrenome" style="text;strokeColor=none;fillColor=none;align=left;verticalAlign=middle;spacingLeft=4;spacingRight=4;overflow=hidden;points=[[0,0.5],[1,0.5]];portConstraint=eastwest;rotatable=0;whiteSpace=wrap;html=1;" vertex="1" parent="hkC0dAM3CeLcHydlQ_uw-25">
          <mxGeometry y="60" width="176" height="30" as="geometry" />
        </mxCell>
        <mxCell id="hkC0dAM3CeLcHydlQ_uw-29" value="LocalDate dataNascimento" style="text;strokeColor=none;fillColor=none;align=left;verticalAlign=middle;spacingLeft=4;spacingRight=4;overflow=hidden;points=[[0,0.5],[1,0.5]];portConstraint=eastwest;rotatable=0;whiteSpace=wrap;html=1;" vertex="1" parent="hkC0dAM3CeLcHydlQ_uw-25">
          <mxGeometry y="90" width="176" height="30" as="geometry" />
        </mxCell>
        <mxCell id="hkC0dAM3CeLcHydlQ_uw-30" value="String logradouro," style="text;strokeColor=none;fillColor=none;align=left;verticalAlign=middle;spacingLeft=4;spacingRight=4;overflow=hidden;points=[[0,0.5],[1,0.5]];portConstraint=eastwest;rotatable=0;whiteSpace=wrap;html=1;" vertex="1" parent="hkC0dAM3CeLcHydlQ_uw-25">
          <mxGeometry y="120" width="176" height="30" as="geometry" />
        </mxCell>
        <mxCell id="hkC0dAM3CeLcHydlQ_uw-31" value="String numero" style="text;strokeColor=none;fillColor=none;align=left;verticalAlign=middle;spacingLeft=4;spacingRight=4;overflow=hidden;points=[[0,0.5],[1,0.5]];portConstraint=eastwest;rotatable=0;whiteSpace=wrap;html=1;" vertex="1" parent="hkC0dAM3CeLcHydlQ_uw-25">
          <mxGeometry y="150" width="176" height="30" as="geometry" />
        </mxCell>
        <mxCell id="hkC0dAM3CeLcHydlQ_uw-32" value="String bairro" style="text;strokeColor=none;fillColor=none;align=left;verticalAlign=middle;spacingLeft=4;spacingRight=4;overflow=hidden;points=[[0,0.5],[1,0.5]];portConstraint=eastwest;rotatable=0;whiteSpace=wrap;html=1;" vertex="1" parent="hkC0dAM3CeLcHydlQ_uw-25">
          <mxGeometry y="180" width="176" height="30" as="geometry" />
        </mxCell>
        <mxCell id="hkC0dAM3CeLcHydlQ_uw-33" value="String referencia" style="text;strokeColor=none;fillColor=none;align=left;verticalAlign=middle;spacingLeft=4;spacingRight=4;overflow=hidden;points=[[0,0.5],[1,0.5]];portConstraint=eastwest;rotatable=0;whiteSpace=wrap;html=1;" vertex="1" parent="hkC0dAM3CeLcHydlQ_uw-25">
          <mxGeometry y="210" width="176" height="30" as="geometry" />
        </mxCell>
        <mxCell id="hkC0dAM3CeLcHydlQ_uw-34" value="String&amp;nbsp; cep" style="text;strokeColor=none;fillColor=none;align=left;verticalAlign=middle;spacingLeft=4;spacingRight=4;overflow=hidden;points=[[0,0.5],[1,0.5]];portConstraint=eastwest;rotatable=0;whiteSpace=wrap;html=1;" vertex="1" parent="hkC0dAM3CeLcHydlQ_uw-25">
          <mxGeometry y="240" width="176" height="30" as="geometry" />
        </mxCell>
        <mxCell id="hkC0dAM3CeLcHydlQ_uw-35" value="String&amp;nbsp; cidade" style="text;strokeColor=none;fillColor=none;align=left;verticalAlign=middle;spacingLeft=4;spacingRight=4;overflow=hidden;points=[[0,0.5],[1,0.5]];portConstraint=eastwest;rotatable=0;whiteSpace=wrap;html=1;" vertex="1" parent="hkC0dAM3CeLcHydlQ_uw-25">
          <mxGeometry y="270" width="176" height="30" as="geometry" />
        </mxCell>
        <mxCell id="hkC0dAM3CeLcHydlQ_uw-36" value="String&amp;nbsp; estado" style="text;strokeColor=none;fillColor=none;align=left;verticalAlign=middle;spacingLeft=4;spacingRight=4;overflow=hidden;points=[[0,0.5],[1,0.5]];portConstraint=eastwest;rotatable=0;whiteSpace=wrap;html=1;" vertex="1" parent="hkC0dAM3CeLcHydlQ_uw-25">
          <mxGeometry y="300" width="176" height="30" as="geometry" />
        </mxCell>
        <mxCell id="hkC0dAM3CeLcHydlQ_uw-37" value="String telefone" style="text;strokeColor=none;fillColor=none;align=left;verticalAlign=middle;spacingLeft=4;spacingRight=4;overflow=hidden;points=[[0,0.5],[1,0.5]];portConstraint=eastwest;rotatable=0;whiteSpace=wrap;html=1;" vertex="1" parent="hkC0dAM3CeLcHydlQ_uw-25">
          <mxGeometry y="330" width="176" height="30" as="geometry" />
        </mxCell>
        <mxCell id="hkC0dAM3CeLcHydlQ_uw-38" value="String email" style="text;strokeColor=none;fillColor=none;align=left;verticalAlign=middle;spacingLeft=4;spacingRight=4;overflow=hidden;points=[[0,0.5],[1,0.5]];portConstraint=eastwest;rotatable=0;whiteSpace=wrap;html=1;" vertex="1" parent="hkC0dAM3CeLcHydlQ_uw-25">
          <mxGeometry y="360" width="176" height="30" as="geometry" />
        </mxCell>
        <mxCell id="hkC0dAM3CeLcHydlQ_uw-39" value="String score" style="text;strokeColor=none;fillColor=none;align=left;verticalAlign=middle;spacingLeft=4;spacingRight=4;overflow=hidden;points=[[0,0.5],[1,0.5]];portConstraint=eastwest;rotatable=0;whiteSpace=wrap;html=1;" vertex="1" parent="hkC0dAM3CeLcHydlQ_uw-25">
          <mxGeometry y="390" width="176" height="30" as="geometry" />
        </mxCell>
        <mxCell id="F5_9vB9kc0Q8NvDJrTBR-1" value="&lt;font style=&quot;font-size: 20px;&quot;&gt;MS_CLIENTE DTO&lt;/font&gt;" style="text;html=1;align=center;verticalAlign=middle;whiteSpace=wrap;rounded=0;" vertex="1" parent="1">
          <mxGeometry x="9" y="31" width="217" height="30" as="geometry" />
        </mxCell>
      </root>
    </mxGraphModel>
  </diagram>
  <diagram id="BzLQMgGilsCn9LqSC592" name="Diagrama de entidade e relacionamento MS_Servico">
    <mxGraphModel dx="864" dy="516" grid="0" gridSize="10" guides="1" tooltips="1" connect="1" arrows="1" fold="1" page="1" pageScale="1" pageWidth="827" pageHeight="1169" math="0" shadow="0">
      <root>
        <mxCell id="0" />
        <mxCell id="1" parent="0" />
        <mxCell id="hTJcpv52hU2rO82xTtGv-1" value="&lt;h1 style=&quot;margin-top: 0px;&quot;&gt;MS_SERVICO&lt;/h1&gt;" style="text;html=1;whiteSpace=wrap;overflow=hidden;rounded=0;" vertex="1" parent="1">
          <mxGeometry x="332" y="35" width="180" height="37" as="geometry" />
        </mxCell>
        <mxCell id="07MSFJnmu1Mxu7niLdKY-1" value="Servico" style="swimlane;fontStyle=0;childLayout=stackLayout;horizontal=1;startSize=30;horizontalStack=0;resizeParent=1;resizeParentMax=0;resizeLast=0;collapsible=1;marginBottom=0;whiteSpace=wrap;html=1;" vertex="1" parent="1">
          <mxGeometry x="326" y="189" width="196" height="240" as="geometry" />
        </mxCell>
        <mxCell id="07MSFJnmu1Mxu7niLdKY-2" value="Long id" style="text;strokeColor=none;fillColor=none;align=left;verticalAlign=middle;spacingLeft=4;spacingRight=4;overflow=hidden;points=[[0,0.5],[1,0.5]];portConstraint=eastwest;rotatable=0;whiteSpace=wrap;html=1;" vertex="1" parent="07MSFJnmu1Mxu7niLdKY-1">
          <mxGeometry y="30" width="196" height="30" as="geometry" />
        </mxCell>
        <mxCell id="07MSFJnmu1Mxu7niLdKY-3" value="String nome" style="text;strokeColor=none;fillColor=none;align=left;verticalAlign=middle;spacingLeft=4;spacingRight=4;overflow=hidden;points=[[0,0.5],[1,0.5]];portConstraint=eastwest;rotatable=0;whiteSpace=wrap;html=1;" vertex="1" parent="07MSFJnmu1Mxu7niLdKY-1">
          <mxGeometry y="60" width="196" height="30" as="geometry" />
        </mxCell>
        <mxCell id="07MSFJnmu1Mxu7niLdKY-4" value="String descricao" style="text;strokeColor=none;fillColor=none;align=left;verticalAlign=middle;spacingLeft=4;spacingRight=4;overflow=hidden;points=[[0,0.5],[1,0.5]];portConstraint=eastwest;rotatable=0;whiteSpace=wrap;html=1;" vertex="1" parent="07MSFJnmu1Mxu7niLdKY-1">
          <mxGeometry y="90" width="196" height="30" as="geometry" />
        </mxCell>
        <mxCell id="07MSFJnmu1Mxu7niLdKY-5" value="String codigo" style="text;strokeColor=none;fillColor=none;align=left;verticalAlign=middle;spacingLeft=4;spacingRight=4;overflow=hidden;points=[[0,0.5],[1,0.5]];portConstraint=eastwest;rotatable=0;whiteSpace=wrap;html=1;" vertex="1" parent="07MSFJnmu1Mxu7niLdKY-1">
          <mxGeometry y="120" width="196" height="30" as="geometry" />
        </mxCell>
        <mxCell id="07MSFJnmu1Mxu7niLdKY-7" value="Double valor" style="text;strokeColor=none;fillColor=none;align=left;verticalAlign=middle;spacingLeft=4;spacingRight=4;overflow=hidden;points=[[0,0.5],[1,0.5]];portConstraint=eastwest;rotatable=0;whiteSpace=wrap;html=1;" vertex="1" parent="07MSFJnmu1Mxu7niLdKY-1">
          <mxGeometry y="150" width="196" height="30" as="geometry" />
        </mxCell>
        <mxCell id="07MSFJnmu1Mxu7niLdKY-8" value="Double maoDeObra" style="text;strokeColor=none;fillColor=none;align=left;verticalAlign=middle;spacingLeft=4;spacingRight=4;overflow=hidden;points=[[0,0.5],[1,0.5]];portConstraint=eastwest;rotatable=0;whiteSpace=wrap;html=1;" vertex="1" parent="07MSFJnmu1Mxu7niLdKY-1">
          <mxGeometry y="180" width="196" height="30" as="geometry" />
        </mxCell>
        <mxCell id="07MSFJnmu1Mxu7niLdKY-6" value="LocalDateTime timeStamp" style="text;strokeColor=none;fillColor=none;align=left;verticalAlign=middle;spacingLeft=4;spacingRight=4;overflow=hidden;points=[[0,0.5],[1,0.5]];portConstraint=eastwest;rotatable=0;whiteSpace=wrap;html=1;" vertex="1" parent="07MSFJnmu1Mxu7niLdKY-1">
          <mxGeometry y="210" width="196" height="30" as="geometry" />
        </mxCell>
      </root>
    </mxGraphModel>
  </diagram>
  <diagram id="uCJQ9b7uf31n5rURy-5C" name="DTOS Ms_servico">
    <mxGraphModel dx="864" dy="516" grid="0" gridSize="10" guides="1" tooltips="1" connect="1" arrows="1" fold="1" page="1" pageScale="1" pageWidth="827" pageHeight="1169" math="0" shadow="0">
      <root>
        <mxCell id="0" />
        <mxCell id="1" parent="0" />
        <mxCell id="Fjs2ghRLH8wmYU02Qy8z-1" value="ServicoDTO" style="swimlane;fontStyle=0;childLayout=stackLayout;horizontal=1;startSize=30;horizontalStack=0;resizeParent=1;resizeParentMax=0;resizeLast=0;collapsible=1;marginBottom=0;whiteSpace=wrap;html=1;" vertex="1" parent="1">
          <mxGeometry x="101" y="130" width="140" height="210" as="geometry" />
        </mxCell>
        <mxCell id="Fjs2ghRLH8wmYU02Qy8z-2" value="Long id" style="text;strokeColor=none;fillColor=none;align=left;verticalAlign=middle;spacingLeft=4;spacingRight=4;overflow=hidden;points=[[0,0.5],[1,0.5]];portConstraint=eastwest;rotatable=0;whiteSpace=wrap;html=1;" vertex="1" parent="Fjs2ghRLH8wmYU02Qy8z-1">
          <mxGeometry y="30" width="140" height="30" as="geometry" />
        </mxCell>
        <mxCell id="Fjs2ghRLH8wmYU02Qy8z-3" value="String nome" style="text;strokeColor=none;fillColor=none;align=left;verticalAlign=middle;spacingLeft=4;spacingRight=4;overflow=hidden;points=[[0,0.5],[1,0.5]];portConstraint=eastwest;rotatable=0;whiteSpace=wrap;html=1;" vertex="1" parent="Fjs2ghRLH8wmYU02Qy8z-1">
          <mxGeometry y="60" width="140" height="30" as="geometry" />
        </mxCell>
        <mxCell id="Fjs2ghRLH8wmYU02Qy8z-4" value="String descricao" style="text;strokeColor=none;fillColor=none;align=left;verticalAlign=middle;spacingLeft=4;spacingRight=4;overflow=hidden;points=[[0,0.5],[1,0.5]];portConstraint=eastwest;rotatable=0;whiteSpace=wrap;html=1;" vertex="1" parent="Fjs2ghRLH8wmYU02Qy8z-1">
          <mxGeometry y="90" width="140" height="30" as="geometry" />
        </mxCell>
        <mxCell id="Fjs2ghRLH8wmYU02Qy8z-5" value="String codigo" style="text;strokeColor=none;fillColor=none;align=left;verticalAlign=middle;spacingLeft=4;spacingRight=4;overflow=hidden;points=[[0,0.5],[1,0.5]];portConstraint=eastwest;rotatable=0;whiteSpace=wrap;html=1;" vertex="1" parent="Fjs2ghRLH8wmYU02Qy8z-1">
          <mxGeometry y="120" width="140" height="30" as="geometry" />
        </mxCell>
        <mxCell id="Fjs2ghRLH8wmYU02Qy8z-6" value="String valor" style="text;strokeColor=none;fillColor=none;align=left;verticalAlign=middle;spacingLeft=4;spacingRight=4;overflow=hidden;points=[[0,0.5],[1,0.5]];portConstraint=eastwest;rotatable=0;whiteSpace=wrap;html=1;" vertex="1" parent="Fjs2ghRLH8wmYU02Qy8z-1">
          <mxGeometry y="150" width="140" height="30" as="geometry" />
        </mxCell>
        <mxCell id="Fjs2ghRLH8wmYU02Qy8z-7" value="String maoDeObra" style="text;strokeColor=none;fillColor=none;align=left;verticalAlign=middle;spacingLeft=4;spacingRight=4;overflow=hidden;points=[[0,0.5],[1,0.5]];portConstraint=eastwest;rotatable=0;whiteSpace=wrap;html=1;" vertex="1" parent="Fjs2ghRLH8wmYU02Qy8z-1">
          <mxGeometry y="180" width="140" height="30" as="geometry" />
        </mxCell>
        <mxCell id="Fjs2ghRLH8wmYU02Qy8z-8" value="ServicoResponseDTO" style="swimlane;fontStyle=0;childLayout=stackLayout;horizontal=1;startSize=30;horizontalStack=0;resizeParent=1;resizeParentMax=0;resizeLast=0;collapsible=1;marginBottom=0;whiteSpace=wrap;html=1;" vertex="1" parent="1">
          <mxGeometry x="281" y="130" width="157" height="210" as="geometry" />
        </mxCell>
        <mxCell id="Fjs2ghRLH8wmYU02Qy8z-9" value="Long id" style="text;strokeColor=none;fillColor=none;align=left;verticalAlign=middle;spacingLeft=4;spacingRight=4;overflow=hidden;points=[[0,0.5],[1,0.5]];portConstraint=eastwest;rotatable=0;whiteSpace=wrap;html=1;" vertex="1" parent="Fjs2ghRLH8wmYU02Qy8z-8">
          <mxGeometry y="30" width="157" height="30" as="geometry" />
        </mxCell>
        <mxCell id="Fjs2ghRLH8wmYU02Qy8z-10" value="String nome" style="text;strokeColor=none;fillColor=none;align=left;verticalAlign=middle;spacingLeft=4;spacingRight=4;overflow=hidden;points=[[0,0.5],[1,0.5]];portConstraint=eastwest;rotatable=0;whiteSpace=wrap;html=1;" vertex="1" parent="Fjs2ghRLH8wmYU02Qy8z-8">
          <mxGeometry y="60" width="157" height="30" as="geometry" />
        </mxCell>
        <mxCell id="Fjs2ghRLH8wmYU02Qy8z-11" value="String descricao" style="text;strokeColor=none;fillColor=none;align=left;verticalAlign=middle;spacingLeft=4;spacingRight=4;overflow=hidden;points=[[0,0.5],[1,0.5]];portConstraint=eastwest;rotatable=0;whiteSpace=wrap;html=1;" vertex="1" parent="Fjs2ghRLH8wmYU02Qy8z-8">
          <mxGeometry y="90" width="157" height="30" as="geometry" />
        </mxCell>
        <mxCell id="Fjs2ghRLH8wmYU02Qy8z-12" value="String codigo" style="text;strokeColor=none;fillColor=none;align=left;verticalAlign=middle;spacingLeft=4;spacingRight=4;overflow=hidden;points=[[0,0.5],[1,0.5]];portConstraint=eastwest;rotatable=0;whiteSpace=wrap;html=1;" vertex="1" parent="Fjs2ghRLH8wmYU02Qy8z-8">
          <mxGeometry y="120" width="157" height="30" as="geometry" />
        </mxCell>
        <mxCell id="Fjs2ghRLH8wmYU02Qy8z-13" value="String valor" style="text;strokeColor=none;fillColor=none;align=left;verticalAlign=middle;spacingLeft=4;spacingRight=4;overflow=hidden;points=[[0,0.5],[1,0.5]];portConstraint=eastwest;rotatable=0;whiteSpace=wrap;html=1;" vertex="1" parent="Fjs2ghRLH8wmYU02Qy8z-8">
          <mxGeometry y="150" width="157" height="30" as="geometry" />
        </mxCell>
        <mxCell id="Fjs2ghRLH8wmYU02Qy8z-14" value="String maoDeObra" style="text;strokeColor=none;fillColor=none;align=left;verticalAlign=middle;spacingLeft=4;spacingRight=4;overflow=hidden;points=[[0,0.5],[1,0.5]];portConstraint=eastwest;rotatable=0;whiteSpace=wrap;html=1;" vertex="1" parent="Fjs2ghRLH8wmYU02Qy8z-8">
          <mxGeometry y="180" width="157" height="30" as="geometry" />
        </mxCell>
        <mxCell id="OzgGkpkovQXH0cWtsqMB-1" value="&lt;font style=&quot;font-size: 20px;&quot;&gt;MS_SERVICO DTO&lt;/font&gt;" style="text;html=1;align=center;verticalAlign=middle;whiteSpace=wrap;rounded=0;" vertex="1" parent="1">
          <mxGeometry x="9" y="31" width="217" height="30" as="geometry" />
        </mxCell>
      </root>
    </mxGraphModel>
  </diagram>
  <diagram id="Gqkd7Pqvysem3A04aSDl" name="Diagrama de entidade e relacionamento MS_Financeiro">
    <mxGraphModel dx="864" dy="516" grid="0" gridSize="10" guides="1" tooltips="1" connect="1" arrows="1" fold="1" page="1" pageScale="1" pageWidth="827" pageHeight="1169" math="0" shadow="0">
      <root>
        <mxCell id="0" />
        <mxCell id="1" parent="0" />
        <mxCell id="0DEE0NCUBTzqQSKhT2Ca-1" value="&lt;h1 style=&quot;margin-top: 0px;&quot;&gt;MS_FINANCEIRO&lt;/h1&gt;" style="text;html=1;whiteSpace=wrap;overflow=hidden;rounded=0;" parent="1" vertex="1">
          <mxGeometry x="30" y="25" width="204" height="37" as="geometry" />
        </mxCell>
        <mxCell id="0DEE0NCUBTzqQSKhT2Ca-3" value="Relatorio_Mensal" style="swimlane;fontStyle=0;childLayout=stackLayout;horizontal=1;startSize=30;horizontalStack=0;resizeParent=1;resizeParentMax=0;resizeLast=0;collapsible=1;marginBottom=0;whiteSpace=wrap;html=1;" parent="1" vertex="1">
          <mxGeometry x="36" y="429" width="175" height="180" as="geometry" />
        </mxCell>
        <mxCell id="0DEE0NCUBTzqQSKhT2Ca-4" value="Long id" style="text;strokeColor=none;fillColor=none;align=left;verticalAlign=middle;spacingLeft=4;spacingRight=4;overflow=hidden;points=[[0,0.5],[1,0.5]];portConstraint=eastwest;rotatable=0;whiteSpace=wrap;html=1;" parent="0DEE0NCUBTzqQSKhT2Ca-3" vertex="1">
          <mxGeometry y="30" width="175" height="30" as="geometry" />
        </mxCell>
        <mxCell id="0DEE0NCUBTzqQSKhT2Ca-5" value="String dataReferencia" style="text;strokeColor=none;fillColor=none;align=left;verticalAlign=middle;spacingLeft=4;spacingRight=4;overflow=hidden;points=[[0,0.5],[1,0.5]];portConstraint=eastwest;rotatable=0;whiteSpace=wrap;html=1;" parent="0DEE0NCUBTzqQSKhT2Ca-3" vertex="1">
          <mxGeometry y="60" width="175" height="30" as="geometry" />
        </mxCell>
        <mxCell id="0DEE0NCUBTzqQSKhT2Ca-6" value="Vendas venda" style="text;strokeColor=none;fillColor=none;align=left;verticalAlign=middle;spacingLeft=4;spacingRight=4;overflow=hidden;points=[[0,0.5],[1,0.5]];portConstraint=eastwest;rotatable=0;whiteSpace=wrap;html=1;" parent="0DEE0NCUBTzqQSKhT2Ca-3" vertex="1">
          <mxGeometry y="90" width="175" height="30" as="geometry" />
        </mxCell>
        <mxCell id="0DEE0NCUBTzqQSKhT2Ca-7" value="Debido debito" style="text;strokeColor=none;fillColor=none;align=left;verticalAlign=middle;spacingLeft=4;spacingRight=4;overflow=hidden;points=[[0,0.5],[1,0.5]];portConstraint=eastwest;rotatable=0;whiteSpace=wrap;html=1;" parent="0DEE0NCUBTzqQSKhT2Ca-3" vertex="1">
          <mxGeometry y="120" width="175" height="30" as="geometry" />
        </mxCell>
        <mxCell id="0DEE0NCUBTzqQSKhT2Ca-8" value="LocalDateTime timeStamp" style="text;strokeColor=none;fillColor=none;align=left;verticalAlign=middle;spacingLeft=4;spacingRight=4;overflow=hidden;points=[[0,0.5],[1,0.5]];portConstraint=eastwest;rotatable=0;whiteSpace=wrap;html=1;" parent="0DEE0NCUBTzqQSKhT2Ca-3" vertex="1">
          <mxGeometry y="150" width="175" height="30" as="geometry" />
        </mxCell>
        <mxCell id="0DEE0NCUBTzqQSKhT2Ca-11" value="Vendas" style="swimlane;fontStyle=0;childLayout=stackLayout;horizontal=1;startSize=30;horizontalStack=0;resizeParent=1;resizeParentMax=0;resizeLast=0;collapsible=1;marginBottom=0;whiteSpace=wrap;html=1;" parent="1" vertex="1">
          <mxGeometry x="275" y="230" width="206" height="240" as="geometry" />
        </mxCell>
        <mxCell id="0DEE0NCUBTzqQSKhT2Ca-12" value="Long id" style="text;strokeColor=none;fillColor=none;align=left;verticalAlign=middle;spacingLeft=4;spacingRight=4;overflow=hidden;points=[[0,0.5],[1,0.5]];portConstraint=eastwest;rotatable=0;whiteSpace=wrap;html=1;" parent="0DEE0NCUBTzqQSKhT2Ca-11" vertex="1">
          <mxGeometry y="30" width="206" height="30" as="geometry" />
        </mxCell>
        <mxCell id="0DEE0NCUBTzqQSKhT2Ca-13" value="Double totalVendasDebito" style="text;strokeColor=none;fillColor=none;align=left;verticalAlign=middle;spacingLeft=4;spacingRight=4;overflow=hidden;points=[[0,0.5],[1,0.5]];portConstraint=eastwest;rotatable=0;whiteSpace=wrap;html=1;" parent="0DEE0NCUBTzqQSKhT2Ca-11" vertex="1">
          <mxGeometry y="60" width="206" height="30" as="geometry" />
        </mxCell>
        <mxCell id="0DEE0NCUBTzqQSKhT2Ca-17" value="Double totalVendasCredito" style="text;strokeColor=none;fillColor=none;align=left;verticalAlign=middle;spacingLeft=4;spacingRight=4;overflow=hidden;points=[[0,0.5],[1,0.5]];portConstraint=eastwest;rotatable=0;whiteSpace=wrap;html=1;" parent="0DEE0NCUBTzqQSKhT2Ca-11" vertex="1">
          <mxGeometry y="90" width="206" height="30" as="geometry" />
        </mxCell>
        <mxCell id="0DEE0NCUBTzqQSKhT2Ca-18" value="Double totalVendasDinheiro" style="text;strokeColor=none;fillColor=none;align=left;verticalAlign=middle;spacingLeft=4;spacingRight=4;overflow=hidden;points=[[0,0.5],[1,0.5]];portConstraint=eastwest;rotatable=0;whiteSpace=wrap;html=1;" parent="0DEE0NCUBTzqQSKhT2Ca-11" vertex="1">
          <mxGeometry y="120" width="206" height="30" as="geometry" />
        </mxCell>
        <mxCell id="0DEE0NCUBTzqQSKhT2Ca-19" value="Double totalVendasPix" style="text;strokeColor=none;fillColor=none;align=left;verticalAlign=middle;spacingLeft=4;spacingRight=4;overflow=hidden;points=[[0,0.5],[1,0.5]];portConstraint=eastwest;rotatable=0;whiteSpace=wrap;html=1;" parent="0DEE0NCUBTzqQSKhT2Ca-11" vertex="1">
          <mxGeometry y="150" width="206" height="30" as="geometry" />
        </mxCell>
        <mxCell id="0DEE0NCUBTzqQSKhT2Ca-15" value="VendaRealizada vendaRealizada" style="text;strokeColor=none;fillColor=none;align=left;verticalAlign=middle;spacingLeft=4;spacingRight=4;overflow=hidden;points=[[0,0.5],[1,0.5]];portConstraint=eastwest;rotatable=0;whiteSpace=wrap;html=1;" parent="0DEE0NCUBTzqQSKhT2Ca-11" vertex="1">
          <mxGeometry y="180" width="206" height="30" as="geometry" />
        </mxCell>
        <mxCell id="0DEE0NCUBTzqQSKhT2Ca-16" value="LocalDateTime timeStamp" style="text;strokeColor=none;fillColor=none;align=left;verticalAlign=middle;spacingLeft=4;spacingRight=4;overflow=hidden;points=[[0,0.5],[1,0.5]];portConstraint=eastwest;rotatable=0;whiteSpace=wrap;html=1;" parent="0DEE0NCUBTzqQSKhT2Ca-11" vertex="1">
          <mxGeometry y="210" width="206" height="30" as="geometry" />
        </mxCell>
        <mxCell id="0DEE0NCUBTzqQSKhT2Ca-20" value="Venda_Realizada" style="swimlane;fontStyle=0;childLayout=stackLayout;horizontal=1;startSize=30;horizontalStack=0;resizeParent=1;resizeParentMax=0;resizeLast=0;collapsible=1;marginBottom=0;whiteSpace=wrap;html=1;" parent="1" vertex="1">
          <mxGeometry x="570" y="43" width="206" height="210" as="geometry" />
        </mxCell>
        <mxCell id="0DEE0NCUBTzqQSKhT2Ca-21" value="Long id" style="text;strokeColor=none;fillColor=none;align=left;verticalAlign=middle;spacingLeft=4;spacingRight=4;overflow=hidden;points=[[0,0.5],[1,0.5]];portConstraint=eastwest;rotatable=0;whiteSpace=wrap;html=1;" parent="0DEE0NCUBTzqQSKhT2Ca-20" vertex="1">
          <mxGeometry y="30" width="206" height="30" as="geometry" />
        </mxCell>
        <mxCell id="0DEE0NCUBTzqQSKhT2Ca-22" value="String cliente" style="text;strokeColor=none;fillColor=none;align=left;verticalAlign=middle;spacingLeft=4;spacingRight=4;overflow=hidden;points=[[0,0.5],[1,0.5]];portConstraint=eastwest;rotatable=0;whiteSpace=wrap;html=1;" parent="0DEE0NCUBTzqQSKhT2Ca-20" vertex="1">
          <mxGeometry y="60" width="206" height="30" as="geometry" />
        </mxCell>
        <mxCell id="0DEE0NCUBTzqQSKhT2Ca-23" value="String codigoVenda" style="text;strokeColor=none;fillColor=none;align=left;verticalAlign=middle;spacingLeft=4;spacingRight=4;overflow=hidden;points=[[0,0.5],[1,0.5]];portConstraint=eastwest;rotatable=0;whiteSpace=wrap;html=1;" parent="0DEE0NCUBTzqQSKhT2Ca-20" vertex="1">
          <mxGeometry y="90" width="206" height="30" as="geometry" />
        </mxCell>
        <mxCell id="0DEE0NCUBTzqQSKhT2Ca-24" value="Double valorVenda" style="text;strokeColor=none;fillColor=none;align=left;verticalAlign=middle;spacingLeft=4;spacingRight=4;overflow=hidden;points=[[0,0.5],[1,0.5]];portConstraint=eastwest;rotatable=0;whiteSpace=wrap;html=1;" parent="0DEE0NCUBTzqQSKhT2Ca-20" vertex="1">
          <mxGeometry y="120" width="206" height="30" as="geometry" />
        </mxCell>
        <mxCell id="0DEE0NCUBTzqQSKhT2Ca-35" value="ItemServicos itemServicos&amp;nbsp;" style="text;strokeColor=none;fillColor=none;align=left;verticalAlign=middle;spacingLeft=4;spacingRight=4;overflow=hidden;points=[[0,0.5],[1,0.5]];portConstraint=eastwest;rotatable=0;whiteSpace=wrap;html=1;" parent="0DEE0NCUBTzqQSKhT2Ca-20" vertex="1">
          <mxGeometry y="150" width="206" height="30" as="geometry" />
        </mxCell>
        <mxCell id="0DEE0NCUBTzqQSKhT2Ca-27" value="LocalDateTime timeStamp" style="text;strokeColor=none;fillColor=none;align=left;verticalAlign=middle;spacingLeft=4;spacingRight=4;overflow=hidden;points=[[0,0.5],[1,0.5]];portConstraint=eastwest;rotatable=0;whiteSpace=wrap;html=1;" parent="0DEE0NCUBTzqQSKhT2Ca-20" vertex="1">
          <mxGeometry y="180" width="206" height="30" as="geometry" />
        </mxCell>
        <mxCell id="0DEE0NCUBTzqQSKhT2Ca-28" value="Item_&lt;span style=&quot;text-align: left;&quot;&gt;Servicos&amp;nbsp;&lt;/span&gt;" style="swimlane;fontStyle=0;childLayout=stackLayout;horizontal=1;startSize=30;horizontalStack=0;resizeParent=1;resizeParentMax=0;resizeLast=0;collapsible=1;marginBottom=0;whiteSpace=wrap;html=1;" parent="1" vertex="1">
          <mxGeometry x="611" y="306" width="206" height="210" as="geometry" />
        </mxCell>
        <mxCell id="0DEE0NCUBTzqQSKhT2Ca-29" value="Long id" style="text;strokeColor=none;fillColor=none;align=left;verticalAlign=middle;spacingLeft=4;spacingRight=4;overflow=hidden;points=[[0,0.5],[1,0.5]];portConstraint=eastwest;rotatable=0;whiteSpace=wrap;html=1;" parent="0DEE0NCUBTzqQSKhT2Ca-28" vertex="1">
          <mxGeometry y="30" width="206" height="30" as="geometry" />
        </mxCell>
        <mxCell id="0DEE0NCUBTzqQSKhT2Ca-30" value="String nome" style="text;strokeColor=none;fillColor=none;align=left;verticalAlign=middle;spacingLeft=4;spacingRight=4;overflow=hidden;points=[[0,0.5],[1,0.5]];portConstraint=eastwest;rotatable=0;whiteSpace=wrap;html=1;" parent="0DEE0NCUBTzqQSKhT2Ca-28" vertex="1">
          <mxGeometry y="60" width="206" height="30" as="geometry" />
        </mxCell>
        <mxCell id="0DEE0NCUBTzqQSKhT2Ca-36" value="String descricao" style="text;strokeColor=none;fillColor=none;align=left;verticalAlign=middle;spacingLeft=4;spacingRight=4;overflow=hidden;points=[[0,0.5],[1,0.5]];portConstraint=eastwest;rotatable=0;whiteSpace=wrap;html=1;" parent="0DEE0NCUBTzqQSKhT2Ca-28" vertex="1">
          <mxGeometry y="90" width="206" height="30" as="geometry" />
        </mxCell>
        <mxCell id="0DEE0NCUBTzqQSKhT2Ca-31" value="String codigo" style="text;strokeColor=none;fillColor=none;align=left;verticalAlign=middle;spacingLeft=4;spacingRight=4;overflow=hidden;points=[[0,0.5],[1,0.5]];portConstraint=eastwest;rotatable=0;whiteSpace=wrap;html=1;" parent="0DEE0NCUBTzqQSKhT2Ca-28" vertex="1">
          <mxGeometry y="120" width="206" height="30" as="geometry" />
        </mxCell>
        <mxCell id="0DEE0NCUBTzqQSKhT2Ca-73" value="Double valor" style="text;strokeColor=none;fillColor=none;align=left;verticalAlign=middle;spacingLeft=4;spacingRight=4;overflow=hidden;points=[[0,0.5],[1,0.5]];portConstraint=eastwest;rotatable=0;whiteSpace=wrap;html=1;" parent="0DEE0NCUBTzqQSKhT2Ca-28" vertex="1">
          <mxGeometry y="150" width="206" height="30" as="geometry" />
        </mxCell>
        <mxCell id="0DEE0NCUBTzqQSKhT2Ca-34" value="LocalDateTime timeStamp" style="text;strokeColor=none;fillColor=none;align=left;verticalAlign=middle;spacingLeft=4;spacingRight=4;overflow=hidden;points=[[0,0.5],[1,0.5]];portConstraint=eastwest;rotatable=0;whiteSpace=wrap;html=1;" parent="0DEE0NCUBTzqQSKhT2Ca-28" vertex="1">
          <mxGeometry y="180" width="206" height="30" as="geometry" />
        </mxCell>
        <mxCell id="0DEE0NCUBTzqQSKhT2Ca-37" value="Debito" style="swimlane;fontStyle=0;childLayout=stackLayout;horizontal=1;startSize=30;horizontalStack=0;resizeParent=1;resizeParentMax=0;resizeLast=0;collapsible=1;marginBottom=0;whiteSpace=wrap;html=1;" parent="1" vertex="1">
          <mxGeometry x="346" y="535" width="175" height="150" as="geometry" />
        </mxCell>
        <mxCell id="0DEE0NCUBTzqQSKhT2Ca-38" value="Long id" style="text;strokeColor=none;fillColor=none;align=left;verticalAlign=middle;spacingLeft=4;spacingRight=4;overflow=hidden;points=[[0,0.5],[1,0.5]];portConstraint=eastwest;rotatable=0;whiteSpace=wrap;html=1;" parent="0DEE0NCUBTzqQSKhT2Ca-37" vertex="1">
          <mxGeometry y="30" width="175" height="30" as="geometry" />
        </mxCell>
        <mxCell id="0DEE0NCUBTzqQSKhT2Ca-39" value="Double valorTotalBoletos" style="text;strokeColor=none;fillColor=none;align=left;verticalAlign=middle;spacingLeft=4;spacingRight=4;overflow=hidden;points=[[0,0.5],[1,0.5]];portConstraint=eastwest;rotatable=0;whiteSpace=wrap;html=1;" parent="0DEE0NCUBTzqQSKhT2Ca-37" vertex="1">
          <mxGeometry y="60" width="175" height="30" as="geometry" />
        </mxCell>
        <mxCell id="0DEE0NCUBTzqQSKhT2Ca-40" value="Boleto boleto" style="text;strokeColor=none;fillColor=none;align=left;verticalAlign=middle;spacingLeft=4;spacingRight=4;overflow=hidden;points=[[0,0.5],[1,0.5]];portConstraint=eastwest;rotatable=0;whiteSpace=wrap;html=1;" parent="0DEE0NCUBTzqQSKhT2Ca-37" vertex="1">
          <mxGeometry y="90" width="175" height="30" as="geometry" />
        </mxCell>
        <mxCell id="0DEE0NCUBTzqQSKhT2Ca-42" value="LocalDateTime timeStamp" style="text;strokeColor=none;fillColor=none;align=left;verticalAlign=middle;spacingLeft=4;spacingRight=4;overflow=hidden;points=[[0,0.5],[1,0.5]];portConstraint=eastwest;rotatable=0;whiteSpace=wrap;html=1;" parent="0DEE0NCUBTzqQSKhT2Ca-37" vertex="1">
          <mxGeometry y="120" width="175" height="30" as="geometry" />
        </mxCell>
        <mxCell id="0DEE0NCUBTzqQSKhT2Ca-43" value="Boleto" style="swimlane;fontStyle=0;childLayout=stackLayout;horizontal=1;startSize=30;horizontalStack=0;resizeParent=1;resizeParentMax=0;resizeLast=0;collapsible=1;marginBottom=0;whiteSpace=wrap;html=1;" parent="1" vertex="1">
          <mxGeometry x="260" y="754" width="228" height="360" as="geometry" />
        </mxCell>
        <mxCell id="0DEE0NCUBTzqQSKhT2Ca-44" value="Long id" style="text;strokeColor=none;fillColor=none;align=left;verticalAlign=middle;spacingLeft=4;spacingRight=4;overflow=hidden;points=[[0,0.5],[1,0.5]];portConstraint=eastwest;rotatable=0;whiteSpace=wrap;html=1;" parent="0DEE0NCUBTzqQSKhT2Ca-43" vertex="1">
          <mxGeometry y="30" width="228" height="30" as="geometry" />
        </mxCell>
        <mxCell id="0DEE0NCUBTzqQSKhT2Ca-45" value="String empresa" style="text;strokeColor=none;fillColor=none;align=left;verticalAlign=middle;spacingLeft=4;spacingRight=4;overflow=hidden;points=[[0,0.5],[1,0.5]];portConstraint=eastwest;rotatable=0;whiteSpace=wrap;html=1;" parent="0DEE0NCUBTzqQSKhT2Ca-43" vertex="1">
          <mxGeometry y="60" width="228" height="30" as="geometry" />
        </mxCell>
        <mxCell id="0DEE0NCUBTzqQSKhT2Ca-46" value="String cnpj" style="text;strokeColor=none;fillColor=none;align=left;verticalAlign=middle;spacingLeft=4;spacingRight=4;overflow=hidden;points=[[0,0.5],[1,0.5]];portConstraint=eastwest;rotatable=0;whiteSpace=wrap;html=1;" parent="0DEE0NCUBTzqQSKhT2Ca-43" vertex="1">
          <mxGeometry y="90" width="228" height="30" as="geometry" />
        </mxCell>
        <mxCell id="0DEE0NCUBTzqQSKhT2Ca-48" value="STATUSPAGAMENTO statusPagamento" style="text;strokeColor=none;fillColor=none;align=left;verticalAlign=middle;spacingLeft=4;spacingRight=4;overflow=hidden;points=[[0,0.5],[1,0.5]];portConstraint=eastwest;rotatable=0;whiteSpace=wrap;html=1;" parent="0DEE0NCUBTzqQSKhT2Ca-43" vertex="1">
          <mxGeometry y="120" width="228" height="30" as="geometry" />
        </mxCell>
        <mxCell id="0DEE0NCUBTzqQSKhT2Ca-49" value="Double parcelas" style="text;strokeColor=none;fillColor=none;align=left;verticalAlign=middle;spacingLeft=4;spacingRight=4;overflow=hidden;points=[[0,0.5],[1,0.5]];portConstraint=eastwest;rotatable=0;whiteSpace=wrap;html=1;" parent="0DEE0NCUBTzqQSKhT2Ca-43" vertex="1">
          <mxGeometry y="150" width="228" height="30" as="geometry" />
        </mxCell>
        <mxCell id="0DEE0NCUBTzqQSKhT2Ca-51" value="Double parcelaAtual" style="text;strokeColor=none;fillColor=none;align=left;verticalAlign=middle;spacingLeft=4;spacingRight=4;overflow=hidden;points=[[0,0.5],[1,0.5]];portConstraint=eastwest;rotatable=0;whiteSpace=wrap;html=1;" parent="0DEE0NCUBTzqQSKhT2Ca-43" vertex="1">
          <mxGeometry y="180" width="228" height="30" as="geometry" />
        </mxCell>
        <mxCell id="0DEE0NCUBTzqQSKhT2Ca-52" value="Double valorParcelas" style="text;strokeColor=none;fillColor=none;align=left;verticalAlign=middle;spacingLeft=4;spacingRight=4;overflow=hidden;points=[[0,0.5],[1,0.5]];portConstraint=eastwest;rotatable=0;whiteSpace=wrap;html=1;" parent="0DEE0NCUBTzqQSKhT2Ca-43" vertex="1">
          <mxGeometry y="210" width="228" height="30" as="geometry" />
        </mxCell>
        <mxCell id="0DEE0NCUBTzqQSKhT2Ca-53" value="Double valorTotal" style="text;strokeColor=none;fillColor=none;align=left;verticalAlign=middle;spacingLeft=4;spacingRight=4;overflow=hidden;points=[[0,0.5],[1,0.5]];portConstraint=eastwest;rotatable=0;whiteSpace=wrap;html=1;" parent="0DEE0NCUBTzqQSKhT2Ca-43" vertex="1">
          <mxGeometry y="240" width="228" height="30" as="geometry" />
        </mxCell>
        <mxCell id="0DEE0NCUBTzqQSKhT2Ca-47" value="LocalDateTime dataVencimento" style="text;strokeColor=none;fillColor=none;align=left;verticalAlign=middle;spacingLeft=4;spacingRight=4;overflow=hidden;points=[[0,0.5],[1,0.5]];portConstraint=eastwest;rotatable=0;whiteSpace=wrap;html=1;" parent="0DEE0NCUBTzqQSKhT2Ca-43" vertex="1">
          <mxGeometry y="270" width="228" height="30" as="geometry" />
        </mxCell>
        <mxCell id="0DEE0NCUBTzqQSKhT2Ca-54" value="LocalDateTime dataPagamento" style="text;strokeColor=none;fillColor=none;align=left;verticalAlign=middle;spacingLeft=4;spacingRight=4;overflow=hidden;points=[[0,0.5],[1,0.5]];portConstraint=eastwest;rotatable=0;whiteSpace=wrap;html=1;" parent="0DEE0NCUBTzqQSKhT2Ca-43" vertex="1">
          <mxGeometry y="300" width="228" height="30" as="geometry" />
        </mxCell>
        <mxCell id="0DEE0NCUBTzqQSKhT2Ca-55" value="LocalDateTime timeStamp" style="text;strokeColor=none;fillColor=none;align=left;verticalAlign=middle;spacingLeft=4;spacingRight=4;overflow=hidden;points=[[0,0.5],[1,0.5]];portConstraint=eastwest;rotatable=0;whiteSpace=wrap;html=1;" parent="0DEE0NCUBTzqQSKhT2Ca-43" vertex="1">
          <mxGeometry y="330" width="228" height="30" as="geometry" />
        </mxCell>
        <mxCell id="0DEE0NCUBTzqQSKhT2Ca-57" style="edgeStyle=orthogonalEdgeStyle;rounded=0;orthogonalLoop=1;jettySize=auto;html=1;exitX=1;exitY=0.5;exitDx=0;exitDy=0;entryX=0;entryY=0.5;entryDx=0;entryDy=0;" parent="1" source="0DEE0NCUBTzqQSKhT2Ca-7" target="0DEE0NCUBTzqQSKhT2Ca-38" edge="1">
          <mxGeometry relative="1" as="geometry" />
        </mxCell>
        <mxCell id="0DEE0NCUBTzqQSKhT2Ca-58" value="1" style="text;html=1;align=center;verticalAlign=middle;resizable=0;points=[];autosize=1;strokeColor=none;fillColor=none;" parent="1" vertex="1">
          <mxGeometry x="205" y="545" width="25" height="26" as="geometry" />
        </mxCell>
        <mxCell id="0DEE0NCUBTzqQSKhT2Ca-60" style="edgeStyle=orthogonalEdgeStyle;rounded=0;orthogonalLoop=1;jettySize=auto;html=1;exitX=1;exitY=0.5;exitDx=0;exitDy=0;entryX=0;entryY=0.5;entryDx=0;entryDy=0;" parent="1" source="0DEE0NCUBTzqQSKhT2Ca-6" target="0DEE0NCUBTzqQSKhT2Ca-12" edge="1">
          <mxGeometry relative="1" as="geometry" />
        </mxCell>
        <mxCell id="0DEE0NCUBTzqQSKhT2Ca-61" value="1" style="text;html=1;align=center;verticalAlign=middle;resizable=0;points=[];autosize=1;strokeColor=none;fillColor=none;" parent="1" vertex="1">
          <mxGeometry x="205" y="514" width="25" height="26" as="geometry" />
        </mxCell>
        <mxCell id="0DEE0NCUBTzqQSKhT2Ca-62" value="1" style="text;html=1;align=center;verticalAlign=middle;resizable=0;points=[];autosize=1;strokeColor=none;fillColor=none;" parent="1" vertex="1">
          <mxGeometry x="250" y="252" width="25" height="26" as="geometry" />
        </mxCell>
        <mxCell id="0DEE0NCUBTzqQSKhT2Ca-63" style="edgeStyle=orthogonalEdgeStyle;rounded=0;orthogonalLoop=1;jettySize=auto;html=1;exitX=1;exitY=0.5;exitDx=0;exitDy=0;entryX=0;entryY=0.5;entryDx=0;entryDy=0;" parent="1" source="0DEE0NCUBTzqQSKhT2Ca-40" target="0DEE0NCUBTzqQSKhT2Ca-44" edge="1">
          <mxGeometry relative="1" as="geometry" />
        </mxCell>
        <mxCell id="0DEE0NCUBTzqQSKhT2Ca-64" value="1" style="text;html=1;align=center;verticalAlign=middle;resizable=0;points=[];autosize=1;strokeColor=none;fillColor=none;" parent="1" vertex="1">
          <mxGeometry x="517" y="620" width="25" height="26" as="geometry" />
        </mxCell>
        <mxCell id="0DEE0NCUBTzqQSKhT2Ca-65" value="n" style="text;html=1;align=center;verticalAlign=middle;resizable=0;points=[];autosize=1;strokeColor=none;fillColor=none;" parent="1" vertex="1">
          <mxGeometry x="237" y="776" width="25" height="26" as="geometry" />
        </mxCell>
        <mxCell id="0DEE0NCUBTzqQSKhT2Ca-66" style="edgeStyle=orthogonalEdgeStyle;rounded=0;orthogonalLoop=1;jettySize=auto;html=1;exitX=0;exitY=0.5;exitDx=0;exitDy=0;entryX=-0.003;entryY=0.317;entryDx=0;entryDy=0;entryPerimeter=0;" parent="1" source="0DEE0NCUBTzqQSKhT2Ca-15" target="0DEE0NCUBTzqQSKhT2Ca-21" edge="1">
          <mxGeometry relative="1" as="geometry">
            <Array as="points">
              <mxPoint x="216" y="425" />
              <mxPoint x="216" y="83" />
            </Array>
          </mxGeometry>
        </mxCell>
        <mxCell id="0DEE0NCUBTzqQSKhT2Ca-67" value="n" style="text;html=1;align=center;verticalAlign=middle;resizable=0;points=[];autosize=1;strokeColor=none;fillColor=none;" parent="1" vertex="1">
          <mxGeometry x="544" y="59" width="25" height="26" as="geometry" />
        </mxCell>
        <mxCell id="0DEE0NCUBTzqQSKhT2Ca-68" value="1" style="text;html=1;align=center;verticalAlign=middle;resizable=0;points=[];autosize=1;strokeColor=none;fillColor=none;" parent="1" vertex="1">
          <mxGeometry x="256" y="404" width="25" height="26" as="geometry" />
        </mxCell>
        <mxCell id="0DEE0NCUBTzqQSKhT2Ca-69" style="edgeStyle=orthogonalEdgeStyle;rounded=0;orthogonalLoop=1;jettySize=auto;html=1;exitX=0;exitY=0.5;exitDx=0;exitDy=0;entryX=0;entryY=0.5;entryDx=0;entryDy=0;" parent="1" source="0DEE0NCUBTzqQSKhT2Ca-35" target="0DEE0NCUBTzqQSKhT2Ca-29" edge="1">
          <mxGeometry relative="1" as="geometry" />
        </mxCell>
        <mxCell id="0DEE0NCUBTzqQSKhT2Ca-71" value="n" style="text;html=1;align=center;verticalAlign=middle;resizable=0;points=[];autosize=1;strokeColor=none;fillColor=none;" parent="1" vertex="1">
          <mxGeometry x="586" y="328" width="25" height="26" as="geometry" />
        </mxCell>
        <mxCell id="0DEE0NCUBTzqQSKhT2Ca-75" value="1" style="text;html=1;align=center;verticalAlign=middle;resizable=0;points=[];autosize=1;strokeColor=none;fillColor=none;" parent="1" vertex="1">
          <mxGeometry x="544" y="186" width="25" height="26" as="geometry" />
        </mxCell>
        <mxCell id="0DEE0NCUBTzqQSKhT2Ca-83" style="edgeStyle=orthogonalEdgeStyle;rounded=0;orthogonalLoop=1;jettySize=auto;html=1;exitX=1;exitY=0;exitDx=0;exitDy=0;entryX=0;entryY=0.5;entryDx=0;entryDy=0;" parent="1" source="0DEE0NCUBTzqQSKhT2Ca-79" target="0DEE0NCUBTzqQSKhT2Ca-48" edge="1">
          <mxGeometry relative="1" as="geometry">
            <Array as="points">
              <mxPoint x="216" y="799" />
              <mxPoint x="216" y="889" />
            </Array>
          </mxGeometry>
        </mxCell>
        <mxCell id="0DEE0NCUBTzqQSKhT2Ca-79" value="STATUSPAGAMENTO" style="swimlane;fontStyle=0;childLayout=stackLayout;horizontal=1;startSize=30;horizontalStack=0;resizeParent=1;resizeParentMax=0;resizeLast=0;collapsible=1;marginBottom=0;whiteSpace=wrap;html=1;" parent="1" vertex="1">
          <mxGeometry x="53" y="799" width="140" height="90" as="geometry" />
        </mxCell>
        <mxCell id="0DEE0NCUBTzqQSKhT2Ca-80" value="AGUARDANDO" style="text;strokeColor=none;fillColor=none;align=left;verticalAlign=middle;spacingLeft=4;spacingRight=4;overflow=hidden;points=[[0,0.5],[1,0.5]];portConstraint=eastwest;rotatable=0;whiteSpace=wrap;html=1;" parent="0DEE0NCUBTzqQSKhT2Ca-79" vertex="1">
          <mxGeometry y="30" width="140" height="30" as="geometry" />
        </mxCell>
        <mxCell id="0DEE0NCUBTzqQSKhT2Ca-81" value="PAGO" style="text;strokeColor=none;fillColor=none;align=left;verticalAlign=middle;spacingLeft=4;spacingRight=4;overflow=hidden;points=[[0,0.5],[1,0.5]];portConstraint=eastwest;rotatable=0;whiteSpace=wrap;html=1;" parent="0DEE0NCUBTzqQSKhT2Ca-79" vertex="1">
          <mxGeometry y="60" width="140" height="30" as="geometry" />
        </mxCell>
        <mxCell id="tIjn7QXdw5HNHQbFGkCV-1" value="1" style="text;html=1;align=center;verticalAlign=middle;resizable=0;points=[];autosize=1;strokeColor=none;fillColor=none;" parent="1" vertex="1">
          <mxGeometry x="321" y="557" width="25" height="26" as="geometry" />
        </mxCell>
      </root>
    </mxGraphModel>
  </diagram>
  <diagram id="qnquZ6HkAkNrQfiTTLVt" name="Diagrama de entidade e relacionamento MS_Pagamento">
    <mxGraphModel dx="864" dy="516" grid="0" gridSize="10" guides="1" tooltips="1" connect="1" arrows="1" fold="1" page="1" pageScale="1" pageWidth="827" pageHeight="1169" math="0" shadow="0">
      <root>
        <mxCell id="0" />
        <mxCell id="1" parent="0" />
        <mxCell id="sbnds7gVAzXv0fHJGQXg-1" value="&lt;h1 style=&quot;margin-top: 0px;&quot;&gt;MS_PAGAMENTO&lt;/h1&gt;" style="text;html=1;whiteSpace=wrap;overflow=hidden;rounded=0;" vertex="1" parent="1">
          <mxGeometry x="30" y="25" width="204" height="37" as="geometry" />
        </mxCell>
        <mxCell id="bB7f9htoehyOtF7UFiS2-1" value="Pagamento" style="swimlane;fontStyle=0;childLayout=stackLayout;horizontal=1;startSize=30;horizontalStack=0;resizeParent=1;resizeParentMax=0;resizeLast=0;collapsible=1;marginBottom=0;whiteSpace=wrap;html=1;" vertex="1" parent="1">
          <mxGeometry x="291" y="118" width="267" height="270" as="geometry" />
        </mxCell>
        <mxCell id="bB7f9htoehyOtF7UFiS2-2" value="Long id" style="text;strokeColor=none;fillColor=none;align=left;verticalAlign=middle;spacingLeft=4;spacingRight=4;overflow=hidden;points=[[0,0.5],[1,0.5]];portConstraint=eastwest;rotatable=0;whiteSpace=wrap;html=1;" vertex="1" parent="bB7f9htoehyOtF7UFiS2-1">
          <mxGeometry y="30" width="267" height="30" as="geometry" />
        </mxCell>
        <mxCell id="bB7f9htoehyOtF7UFiS2-3" value="FORMAPAGAMENTO formaPagamento" style="text;strokeColor=none;fillColor=none;align=left;verticalAlign=middle;spacingLeft=4;spacingRight=4;overflow=hidden;points=[[0,0.5],[1,0.5]];portConstraint=eastwest;rotatable=0;whiteSpace=wrap;html=1;" vertex="1" parent="bB7f9htoehyOtF7UFiS2-1">
          <mxGeometry y="60" width="267" height="30" as="geometry" />
        </mxCell>
        <mxCell id="bB7f9htoehyOtF7UFiS2-4" value="Double parcela" style="text;strokeColor=none;fillColor=none;align=left;verticalAlign=middle;spacingLeft=4;spacingRight=4;overflow=hidden;points=[[0,0.5],[1,0.5]];portConstraint=eastwest;rotatable=0;whiteSpace=wrap;html=1;" vertex="1" parent="bB7f9htoehyOtF7UFiS2-1">
          <mxGeometry y="90" width="267" height="30" as="geometry" />
        </mxCell>
        <mxCell id="bB7f9htoehyOtF7UFiS2-5" value="Double valor parcela" style="text;strokeColor=none;fillColor=none;align=left;verticalAlign=middle;spacingLeft=4;spacingRight=4;overflow=hidden;points=[[0,0.5],[1,0.5]];portConstraint=eastwest;rotatable=0;whiteSpace=wrap;html=1;" vertex="1" parent="bB7f9htoehyOtF7UFiS2-1">
          <mxGeometry y="120" width="267" height="30" as="geometry" />
        </mxCell>
        <mxCell id="bB7f9htoehyOtF7UFiS2-6" value="Double valorTotal" style="text;strokeColor=none;fillColor=none;align=left;verticalAlign=middle;spacingLeft=4;spacingRight=4;overflow=hidden;points=[[0,0.5],[1,0.5]];portConstraint=eastwest;rotatable=0;whiteSpace=wrap;html=1;" vertex="1" parent="bB7f9htoehyOtF7UFiS2-1">
          <mxGeometry y="150" width="267" height="30" as="geometry" />
        </mxCell>
        <mxCell id="bB7f9htoehyOtF7UFiS2-7" value="Double valorTroco" style="text;strokeColor=none;fillColor=none;align=left;verticalAlign=middle;spacingLeft=4;spacingRight=4;overflow=hidden;points=[[0,0.5],[1,0.5]];portConstraint=eastwest;rotatable=0;whiteSpace=wrap;html=1;" vertex="1" parent="bB7f9htoehyOtF7UFiS2-1">
          <mxGeometry y="180" width="267" height="30" as="geometry" />
        </mxCell>
        <mxCell id="bB7f9htoehyOtF7UFiS2-8" value="LocalDateTime dataPagamento" style="text;strokeColor=none;fillColor=none;align=left;verticalAlign=middle;spacingLeft=4;spacingRight=4;overflow=hidden;points=[[0,0.5],[1,0.5]];portConstraint=eastwest;rotatable=0;whiteSpace=wrap;html=1;" vertex="1" parent="bB7f9htoehyOtF7UFiS2-1">
          <mxGeometry y="210" width="267" height="30" as="geometry" />
        </mxCell>
        <mxCell id="bB7f9htoehyOtF7UFiS2-9" value="STATUSPAGAMENTO statusPagamento" style="text;strokeColor=none;fillColor=none;align=left;verticalAlign=middle;spacingLeft=4;spacingRight=4;overflow=hidden;points=[[0,0.5],[1,0.5]];portConstraint=eastwest;rotatable=0;whiteSpace=wrap;html=1;" vertex="1" parent="bB7f9htoehyOtF7UFiS2-1">
          <mxGeometry y="240" width="267" height="30" as="geometry" />
        </mxCell>
      </root>
    </mxGraphModel>
  </diagram>
  <diagram id="2CU-CAECVO8G0Swg54JE" name="DTOS REQUEST MS_FINANCEIRO">
    <mxGraphModel dx="864" dy="516" grid="0" gridSize="10" guides="1" tooltips="1" connect="1" arrows="1" fold="1" page="1" pageScale="1" pageWidth="827" pageHeight="1169" math="0" shadow="0">
      <root>
        <mxCell id="0" />
        <mxCell id="1" parent="0" />
        <mxCell id="9CgU_G29A3GN0idP7z9q-1" value="&lt;font style=&quot;font-size: 20px;&quot;&gt;MS_FINANCEIRO REQUEST DTO&lt;/font&gt;" style="text;html=1;align=center;verticalAlign=middle;whiteSpace=wrap;rounded=0;" parent="1" vertex="1">
          <mxGeometry x="36" y="9" width="345" height="30" as="geometry" />
        </mxCell>
        <mxCell id="9CgU_G29A3GN0idP7z9q-55" value="REQUEST" style="swimlane;whiteSpace=wrap;html=1;" parent="1" vertex="1">
          <mxGeometry x="36" y="80" width="620" height="378" as="geometry" />
        </mxCell>
        <mxCell id="9CgU_G29A3GN0idP7z9q-2" value="BoletosRequestDTO" style="swimlane;fontStyle=0;childLayout=stackLayout;horizontal=1;startSize=30;horizontalStack=0;resizeParent=1;resizeParentMax=0;resizeLast=0;collapsible=1;marginBottom=0;whiteSpace=wrap;html=1;" parent="9CgU_G29A3GN0idP7z9q-55" vertex="1">
          <mxGeometry x="14" y="33" width="140" height="240" as="geometry" />
        </mxCell>
        <mxCell id="9CgU_G29A3GN0idP7z9q-3" value="String empresa" style="text;strokeColor=none;fillColor=none;align=left;verticalAlign=middle;spacingLeft=4;spacingRight=4;overflow=hidden;points=[[0,0.5],[1,0.5]];portConstraint=eastwest;rotatable=0;whiteSpace=wrap;html=1;" parent="9CgU_G29A3GN0idP7z9q-2" vertex="1">
          <mxGeometry y="30" width="140" height="30" as="geometry" />
        </mxCell>
        <mxCell id="9CgU_G29A3GN0idP7z9q-4" value="String cnpj" style="text;strokeColor=none;fillColor=none;align=left;verticalAlign=middle;spacingLeft=4;spacingRight=4;overflow=hidden;points=[[0,0.5],[1,0.5]];portConstraint=eastwest;rotatable=0;whiteSpace=wrap;html=1;" parent="9CgU_G29A3GN0idP7z9q-2" vertex="1">
          <mxGeometry y="60" width="140" height="30" as="geometry" />
        </mxCell>
        <mxCell id="9CgU_G29A3GN0idP7z9q-5" value="LocalDate dataVencimento" style="text;strokeColor=none;fillColor=none;align=left;verticalAlign=middle;spacingLeft=4;spacingRight=4;overflow=hidden;points=[[0,0.5],[1,0.5]];portConstraint=eastwest;rotatable=0;whiteSpace=wrap;html=1;" parent="9CgU_G29A3GN0idP7z9q-2" vertex="1">
          <mxGeometry y="90" width="140" height="30" as="geometry" />
        </mxCell>
        <mxCell id="9CgU_G29A3GN0idP7z9q-6" value="String cnpj" style="text;strokeColor=none;fillColor=none;align=left;verticalAlign=middle;spacingLeft=4;spacingRight=4;overflow=hidden;points=[[0,0.5],[1,0.5]];portConstraint=eastwest;rotatable=0;whiteSpace=wrap;html=1;" parent="9CgU_G29A3GN0idP7z9q-2" vertex="1">
          <mxGeometry y="120" width="140" height="30" as="geometry" />
        </mxCell>
        <mxCell id="9CgU_G29A3GN0idP7z9q-7" value="Double parcelas" style="text;strokeColor=none;fillColor=none;align=left;verticalAlign=middle;spacingLeft=4;spacingRight=4;overflow=hidden;points=[[0,0.5],[1,0.5]];portConstraint=eastwest;rotatable=0;whiteSpace=wrap;html=1;" parent="9CgU_G29A3GN0idP7z9q-2" vertex="1">
          <mxGeometry y="150" width="140" height="30" as="geometry" />
        </mxCell>
        <mxCell id="9CgU_G29A3GN0idP7z9q-8" value="Double parcelasAtual" style="text;strokeColor=none;fillColor=none;align=left;verticalAlign=middle;spacingLeft=4;spacingRight=4;overflow=hidden;points=[[0,0.5],[1,0.5]];portConstraint=eastwest;rotatable=0;whiteSpace=wrap;html=1;" parent="9CgU_G29A3GN0idP7z9q-2" vertex="1">
          <mxGeometry y="180" width="140" height="30" as="geometry" />
        </mxCell>
        <mxCell id="9CgU_G29A3GN0idP7z9q-9" value="Double valorTotal" style="text;strokeColor=none;fillColor=none;align=left;verticalAlign=middle;spacingLeft=4;spacingRight=4;overflow=hidden;points=[[0,0.5],[1,0.5]];portConstraint=eastwest;rotatable=0;whiteSpace=wrap;html=1;" parent="9CgU_G29A3GN0idP7z9q-2" vertex="1">
          <mxGeometry y="210" width="140" height="30" as="geometry" />
        </mxCell>
        <mxCell id="9CgU_G29A3GN0idP7z9q-18" value="ItemVendaRequestDTO" style="swimlane;fontStyle=0;childLayout=stackLayout;horizontal=1;startSize=30;horizontalStack=0;resizeParent=1;resizeParentMax=0;resizeLast=0;collapsible=1;marginBottom=0;whiteSpace=wrap;html=1;" parent="9CgU_G29A3GN0idP7z9q-55" vertex="1">
          <mxGeometry x="170" y="33" width="140" height="180" as="geometry" />
        </mxCell>
        <mxCell id="9CgU_G29A3GN0idP7z9q-19" value="String nome" style="text;strokeColor=none;fillColor=none;align=left;verticalAlign=middle;spacingLeft=4;spacingRight=4;overflow=hidden;points=[[0,0.5],[1,0.5]];portConstraint=eastwest;rotatable=0;whiteSpace=wrap;html=1;" parent="9CgU_G29A3GN0idP7z9q-18" vertex="1">
          <mxGeometry y="30" width="140" height="30" as="geometry" />
        </mxCell>
        <mxCell id="9CgU_G29A3GN0idP7z9q-20" value="String descricao" style="text;strokeColor=none;fillColor=none;align=left;verticalAlign=middle;spacingLeft=4;spacingRight=4;overflow=hidden;points=[[0,0.5],[1,0.5]];portConstraint=eastwest;rotatable=0;whiteSpace=wrap;html=1;" parent="9CgU_G29A3GN0idP7z9q-18" vertex="1">
          <mxGeometry y="60" width="140" height="30" as="geometry" />
        </mxCell>
        <mxCell id="9CgU_G29A3GN0idP7z9q-21" value="Double quantidade" style="text;strokeColor=none;fillColor=none;align=left;verticalAlign=middle;spacingLeft=4;spacingRight=4;overflow=hidden;points=[[0,0.5],[1,0.5]];portConstraint=eastwest;rotatable=0;whiteSpace=wrap;html=1;" parent="9CgU_G29A3GN0idP7z9q-18" vertex="1">
          <mxGeometry y="90" width="140" height="30" as="geometry" />
        </mxCell>
        <mxCell id="9CgU_G29A3GN0idP7z9q-22" value="Double valorUnitario" style="text;strokeColor=none;fillColor=none;align=left;verticalAlign=middle;spacingLeft=4;spacingRight=4;overflow=hidden;points=[[0,0.5],[1,0.5]];portConstraint=eastwest;rotatable=0;whiteSpace=wrap;html=1;" parent="9CgU_G29A3GN0idP7z9q-18" vertex="1">
          <mxGeometry y="120" width="140" height="30" as="geometry" />
        </mxCell>
        <mxCell id="9CgU_G29A3GN0idP7z9q-23" value="Double valorTotal" style="text;strokeColor=none;fillColor=none;align=left;verticalAlign=middle;spacingLeft=4;spacingRight=4;overflow=hidden;points=[[0,0.5],[1,0.5]];portConstraint=eastwest;rotatable=0;whiteSpace=wrap;html=1;" parent="9CgU_G29A3GN0idP7z9q-18" vertex="1">
          <mxGeometry y="150" width="140" height="30" as="geometry" />
        </mxCell>
        <mxCell id="9CgU_G29A3GN0idP7z9q-38" value="VendaRequestFinalziadaDTO" style="swimlane;fontStyle=0;childLayout=stackLayout;horizontal=1;startSize=30;horizontalStack=0;resizeParent=1;resizeParentMax=0;resizeLast=0;collapsible=1;marginBottom=0;whiteSpace=wrap;html=1;" parent="9CgU_G29A3GN0idP7z9q-55" vertex="1">
          <mxGeometry x="324" y="33" width="210" height="300" as="geometry" />
        </mxCell>
        <mxCell id="9CgU_G29A3GN0idP7z9q-39" value="String nomeCLiente" style="text;strokeColor=none;fillColor=none;align=left;verticalAlign=middle;spacingLeft=4;spacingRight=4;overflow=hidden;points=[[0,0.5],[1,0.5]];portConstraint=eastwest;rotatable=0;whiteSpace=wrap;html=1;" parent="9CgU_G29A3GN0idP7z9q-38" vertex="1">
          <mxGeometry y="30" width="210" height="30" as="geometry" />
        </mxCell>
        <mxCell id="9CgU_G29A3GN0idP7z9q-40" value="String codigo" style="text;strokeColor=none;fillColor=none;align=left;verticalAlign=middle;spacingLeft=4;spacingRight=4;overflow=hidden;points=[[0,0.5],[1,0.5]];portConstraint=eastwest;rotatable=0;whiteSpace=wrap;html=1;" parent="9CgU_G29A3GN0idP7z9q-38" vertex="1">
          <mxGeometry y="60" width="210" height="30" as="geometry" />
        </mxCell>
        <mxCell id="9CgU_G29A3GN0idP7z9q-41" value="LocalDateTime dataServico" style="text;strokeColor=none;fillColor=none;align=left;verticalAlign=middle;spacingLeft=4;spacingRight=4;overflow=hidden;points=[[0,0.5],[1,0.5]];portConstraint=eastwest;rotatable=0;whiteSpace=wrap;html=1;" parent="9CgU_G29A3GN0idP7z9q-38" vertex="1">
          <mxGeometry y="90" width="210" height="30" as="geometry" />
        </mxCell>
        <mxCell id="9CgU_G29A3GN0idP7z9q-42" value="List&amp;lt;ItemVendaRequestDTO&amp;gt; itens" style="text;strokeColor=none;fillColor=none;align=left;verticalAlign=middle;spacingLeft=4;spacingRight=4;overflow=hidden;points=[[0,0.5],[1,0.5]];portConstraint=eastwest;rotatable=0;whiteSpace=wrap;html=1;" parent="9CgU_G29A3GN0idP7z9q-38" vertex="1">
          <mxGeometry y="120" width="210" height="30" as="geometry" />
        </mxCell>
        <mxCell id="9CgU_G29A3GN0idP7z9q-43" value="Double parcelas" style="text;strokeColor=none;fillColor=none;align=left;verticalAlign=middle;spacingLeft=4;spacingRight=4;overflow=hidden;points=[[0,0.5],[1,0.5]];portConstraint=eastwest;rotatable=0;whiteSpace=wrap;html=1;" parent="9CgU_G29A3GN0idP7z9q-38" vertex="1">
          <mxGeometry y="150" width="210" height="30" as="geometry" />
        </mxCell>
        <mxCell id="9CgU_G29A3GN0idP7z9q-44" value="Double valorParcelas" style="text;strokeColor=none;fillColor=none;align=left;verticalAlign=middle;spacingLeft=4;spacingRight=4;overflow=hidden;points=[[0,0.5],[1,0.5]];portConstraint=eastwest;rotatable=0;whiteSpace=wrap;html=1;" parent="9CgU_G29A3GN0idP7z9q-38" vertex="1">
          <mxGeometry y="180" width="210" height="30" as="geometry" />
        </mxCell>
        <mxCell id="9CgU_G29A3GN0idP7z9q-45" value="Double valorTotal" style="text;strokeColor=none;fillColor=none;align=left;verticalAlign=middle;spacingLeft=4;spacingRight=4;overflow=hidden;points=[[0,0.5],[1,0.5]];portConstraint=eastwest;rotatable=0;whiteSpace=wrap;html=1;" parent="9CgU_G29A3GN0idP7z9q-38" vertex="1">
          <mxGeometry y="210" width="210" height="30" as="geometry" />
        </mxCell>
        <mxCell id="9CgU_G29A3GN0idP7z9q-46" value="FORMAPAGAMENTO formapagamento" style="text;strokeColor=none;fillColor=none;align=left;verticalAlign=middle;spacingLeft=4;spacingRight=4;overflow=hidden;points=[[0,0.5],[1,0.5]];portConstraint=eastwest;rotatable=0;whiteSpace=wrap;html=1;" parent="9CgU_G29A3GN0idP7z9q-38" vertex="1">
          <mxGeometry y="240" width="210" height="30" as="geometry" />
        </mxCell>
        <mxCell id="9CgU_G29A3GN0idP7z9q-47" value="LocalDateTime dataPagamento" style="text;strokeColor=none;fillColor=none;align=left;verticalAlign=middle;spacingLeft=4;spacingRight=4;overflow=hidden;points=[[0,0.5],[1,0.5]];portConstraint=eastwest;rotatable=0;whiteSpace=wrap;html=1;" parent="9CgU_G29A3GN0idP7z9q-38" vertex="1">
          <mxGeometry y="270" width="210" height="30" as="geometry" />
        </mxCell>
      </root>
    </mxGraphModel>
  </diagram>
  <diagram name="DTOS RESPONSE MS_FINANCEIRO" id="aYRxFmuAYhccJ86kAaB8">
    <mxGraphModel dx="862" dy="516" grid="0" gridSize="10" guides="1" tooltips="1" connect="1" arrows="1" fold="1" page="1" pageScale="1" pageWidth="827" pageHeight="1169" math="0" shadow="0">
      <root>
        <mxCell id="TjqZ6nq2tmqOSgpM_wzL-0" />
        <mxCell id="TjqZ6nq2tmqOSgpM_wzL-1" parent="TjqZ6nq2tmqOSgpM_wzL-0" />
        <mxCell id="TjqZ6nq2tmqOSgpM_wzL-28" value="RESPONSE" style="swimlane;whiteSpace=wrap;html=1;" vertex="1" parent="TjqZ6nq2tmqOSgpM_wzL-1">
          <mxGeometry x="41" y="60" width="773" height="1067" as="geometry" />
        </mxCell>
        <mxCell id="TjqZ6nq2tmqOSgpM_wzL-29" value="BoletosResponseDTO" style="swimlane;fontStyle=0;childLayout=stackLayout;horizontal=1;startSize=30;horizontalStack=0;resizeParent=1;resizeParentMax=0;resizeLast=0;collapsible=1;marginBottom=0;whiteSpace=wrap;html=1;" vertex="1" parent="TjqZ6nq2tmqOSgpM_wzL-28">
          <mxGeometry x="6" y="37" width="140" height="270" as="geometry" />
        </mxCell>
        <mxCell id="TjqZ6nq2tmqOSgpM_wzL-30" value="Long id" style="text;strokeColor=none;fillColor=none;align=left;verticalAlign=middle;spacingLeft=4;spacingRight=4;overflow=hidden;points=[[0,0.5],[1,0.5]];portConstraint=eastwest;rotatable=0;whiteSpace=wrap;html=1;" vertex="1" parent="TjqZ6nq2tmqOSgpM_wzL-29">
          <mxGeometry y="30" width="140" height="30" as="geometry" />
        </mxCell>
        <mxCell id="TjqZ6nq2tmqOSgpM_wzL-31" value="String empresa" style="text;strokeColor=none;fillColor=none;align=left;verticalAlign=middle;spacingLeft=4;spacingRight=4;overflow=hidden;points=[[0,0.5],[1,0.5]];portConstraint=eastwest;rotatable=0;whiteSpace=wrap;html=1;" vertex="1" parent="TjqZ6nq2tmqOSgpM_wzL-29">
          <mxGeometry y="60" width="140" height="30" as="geometry" />
        </mxCell>
        <mxCell id="TjqZ6nq2tmqOSgpM_wzL-32" value="String cnpj" style="text;strokeColor=none;fillColor=none;align=left;verticalAlign=middle;spacingLeft=4;spacingRight=4;overflow=hidden;points=[[0,0.5],[1,0.5]];portConstraint=eastwest;rotatable=0;whiteSpace=wrap;html=1;" vertex="1" parent="TjqZ6nq2tmqOSgpM_wzL-29">
          <mxGeometry y="90" width="140" height="30" as="geometry" />
        </mxCell>
        <mxCell id="TjqZ6nq2tmqOSgpM_wzL-33" value="LocalDate dataVencimento" style="text;strokeColor=none;fillColor=none;align=left;verticalAlign=middle;spacingLeft=4;spacingRight=4;overflow=hidden;points=[[0,0.5],[1,0.5]];portConstraint=eastwest;rotatable=0;whiteSpace=wrap;html=1;" vertex="1" parent="TjqZ6nq2tmqOSgpM_wzL-29">
          <mxGeometry y="120" width="140" height="30" as="geometry" />
        </mxCell>
        <mxCell id="TjqZ6nq2tmqOSgpM_wzL-34" value="String cnpj" style="text;strokeColor=none;fillColor=none;align=left;verticalAlign=middle;spacingLeft=4;spacingRight=4;overflow=hidden;points=[[0,0.5],[1,0.5]];portConstraint=eastwest;rotatable=0;whiteSpace=wrap;html=1;" vertex="1" parent="TjqZ6nq2tmqOSgpM_wzL-29">
          <mxGeometry y="150" width="140" height="30" as="geometry" />
        </mxCell>
        <mxCell id="TjqZ6nq2tmqOSgpM_wzL-35" value="Double parcelas" style="text;strokeColor=none;fillColor=none;align=left;verticalAlign=middle;spacingLeft=4;spacingRight=4;overflow=hidden;points=[[0,0.5],[1,0.5]];portConstraint=eastwest;rotatable=0;whiteSpace=wrap;html=1;" vertex="1" parent="TjqZ6nq2tmqOSgpM_wzL-29">
          <mxGeometry y="180" width="140" height="30" as="geometry" />
        </mxCell>
        <mxCell id="TjqZ6nq2tmqOSgpM_wzL-36" value="Double parcelasAtual" style="text;strokeColor=none;fillColor=none;align=left;verticalAlign=middle;spacingLeft=4;spacingRight=4;overflow=hidden;points=[[0,0.5],[1,0.5]];portConstraint=eastwest;rotatable=0;whiteSpace=wrap;html=1;" vertex="1" parent="TjqZ6nq2tmqOSgpM_wzL-29">
          <mxGeometry y="210" width="140" height="30" as="geometry" />
        </mxCell>
        <mxCell id="TjqZ6nq2tmqOSgpM_wzL-37" value="Double valorTotal" style="text;strokeColor=none;fillColor=none;align=left;verticalAlign=middle;spacingLeft=4;spacingRight=4;overflow=hidden;points=[[0,0.5],[1,0.5]];portConstraint=eastwest;rotatable=0;whiteSpace=wrap;html=1;" vertex="1" parent="TjqZ6nq2tmqOSgpM_wzL-29">
          <mxGeometry y="240" width="140" height="30" as="geometry" />
        </mxCell>
        <mxCell id="TjqZ6nq2tmqOSgpM_wzL-38" value="ItemVendaResponseDTO" style="swimlane;fontStyle=0;childLayout=stackLayout;horizontal=1;startSize=30;horizontalStack=0;resizeParent=1;resizeParentMax=0;resizeLast=0;collapsible=1;marginBottom=0;whiteSpace=wrap;html=1;" vertex="1" parent="TjqZ6nq2tmqOSgpM_wzL-28">
          <mxGeometry x="159" y="37" width="140" height="180" as="geometry" />
        </mxCell>
        <mxCell id="TjqZ6nq2tmqOSgpM_wzL-39" value="String nome" style="text;strokeColor=none;fillColor=none;align=left;verticalAlign=middle;spacingLeft=4;spacingRight=4;overflow=hidden;points=[[0,0.5],[1,0.5]];portConstraint=eastwest;rotatable=0;whiteSpace=wrap;html=1;" vertex="1" parent="TjqZ6nq2tmqOSgpM_wzL-38">
          <mxGeometry y="30" width="140" height="30" as="geometry" />
        </mxCell>
        <mxCell id="TjqZ6nq2tmqOSgpM_wzL-40" value="String descricao" style="text;strokeColor=none;fillColor=none;align=left;verticalAlign=middle;spacingLeft=4;spacingRight=4;overflow=hidden;points=[[0,0.5],[1,0.5]];portConstraint=eastwest;rotatable=0;whiteSpace=wrap;html=1;" vertex="1" parent="TjqZ6nq2tmqOSgpM_wzL-38">
          <mxGeometry y="60" width="140" height="30" as="geometry" />
        </mxCell>
        <mxCell id="TjqZ6nq2tmqOSgpM_wzL-41" value="Double quantidade" style="text;strokeColor=none;fillColor=none;align=left;verticalAlign=middle;spacingLeft=4;spacingRight=4;overflow=hidden;points=[[0,0.5],[1,0.5]];portConstraint=eastwest;rotatable=0;whiteSpace=wrap;html=1;" vertex="1" parent="TjqZ6nq2tmqOSgpM_wzL-38">
          <mxGeometry y="90" width="140" height="30" as="geometry" />
        </mxCell>
        <mxCell id="TjqZ6nq2tmqOSgpM_wzL-42" value="Double valorUnitario" style="text;strokeColor=none;fillColor=none;align=left;verticalAlign=middle;spacingLeft=4;spacingRight=4;overflow=hidden;points=[[0,0.5],[1,0.5]];portConstraint=eastwest;rotatable=0;whiteSpace=wrap;html=1;" vertex="1" parent="TjqZ6nq2tmqOSgpM_wzL-38">
          <mxGeometry y="120" width="140" height="30" as="geometry" />
        </mxCell>
        <mxCell id="TjqZ6nq2tmqOSgpM_wzL-43" value="Double valorTotal" style="text;strokeColor=none;fillColor=none;align=left;verticalAlign=middle;spacingLeft=4;spacingRight=4;overflow=hidden;points=[[0,0.5],[1,0.5]];portConstraint=eastwest;rotatable=0;whiteSpace=wrap;html=1;" vertex="1" parent="TjqZ6nq2tmqOSgpM_wzL-38">
          <mxGeometry y="150" width="140" height="30" as="geometry" />
        </mxCell>
        <mxCell id="TjqZ6nq2tmqOSgpM_wzL-44" value="VendaResponseFinalizadaDTO" style="swimlane;fontStyle=0;childLayout=stackLayout;horizontal=1;startSize=30;horizontalStack=0;resizeParent=1;resizeParentMax=0;resizeLast=0;collapsible=1;marginBottom=0;whiteSpace=wrap;html=1;" vertex="1" parent="TjqZ6nq2tmqOSgpM_wzL-28">
          <mxGeometry x="314" y="37" width="210" height="330" as="geometry" />
        </mxCell>
        <mxCell id="TjqZ6nq2tmqOSgpM_wzL-45" value="Long id" style="text;strokeColor=none;fillColor=none;align=left;verticalAlign=middle;spacingLeft=4;spacingRight=4;overflow=hidden;points=[[0,0.5],[1,0.5]];portConstraint=eastwest;rotatable=0;whiteSpace=wrap;html=1;" vertex="1" parent="TjqZ6nq2tmqOSgpM_wzL-44">
          <mxGeometry y="30" width="210" height="30" as="geometry" />
        </mxCell>
        <mxCell id="TjqZ6nq2tmqOSgpM_wzL-46" value="String nomeCLiente" style="text;strokeColor=none;fillColor=none;align=left;verticalAlign=middle;spacingLeft=4;spacingRight=4;overflow=hidden;points=[[0,0.5],[1,0.5]];portConstraint=eastwest;rotatable=0;whiteSpace=wrap;html=1;" vertex="1" parent="TjqZ6nq2tmqOSgpM_wzL-44">
          <mxGeometry y="60" width="210" height="30" as="geometry" />
        </mxCell>
        <mxCell id="TjqZ6nq2tmqOSgpM_wzL-47" value="String codigo" style="text;strokeColor=none;fillColor=none;align=left;verticalAlign=middle;spacingLeft=4;spacingRight=4;overflow=hidden;points=[[0,0.5],[1,0.5]];portConstraint=eastwest;rotatable=0;whiteSpace=wrap;html=1;" vertex="1" parent="TjqZ6nq2tmqOSgpM_wzL-44">
          <mxGeometry y="90" width="210" height="30" as="geometry" />
        </mxCell>
        <mxCell id="TjqZ6nq2tmqOSgpM_wzL-48" value="LocalDateTime dataServico" style="text;strokeColor=none;fillColor=none;align=left;verticalAlign=middle;spacingLeft=4;spacingRight=4;overflow=hidden;points=[[0,0.5],[1,0.5]];portConstraint=eastwest;rotatable=0;whiteSpace=wrap;html=1;" vertex="1" parent="TjqZ6nq2tmqOSgpM_wzL-44">
          <mxGeometry y="120" width="210" height="30" as="geometry" />
        </mxCell>
        <mxCell id="TjqZ6nq2tmqOSgpM_wzL-49" value="List&amp;lt;ItemVendaRequestDTO&amp;gt; itens" style="text;strokeColor=none;fillColor=none;align=left;verticalAlign=middle;spacingLeft=4;spacingRight=4;overflow=hidden;points=[[0,0.5],[1,0.5]];portConstraint=eastwest;rotatable=0;whiteSpace=wrap;html=1;" vertex="1" parent="TjqZ6nq2tmqOSgpM_wzL-44">
          <mxGeometry y="150" width="210" height="30" as="geometry" />
        </mxCell>
        <mxCell id="TjqZ6nq2tmqOSgpM_wzL-50" value="Double parcelas" style="text;strokeColor=none;fillColor=none;align=left;verticalAlign=middle;spacingLeft=4;spacingRight=4;overflow=hidden;points=[[0,0.5],[1,0.5]];portConstraint=eastwest;rotatable=0;whiteSpace=wrap;html=1;" vertex="1" parent="TjqZ6nq2tmqOSgpM_wzL-44">
          <mxGeometry y="180" width="210" height="30" as="geometry" />
        </mxCell>
        <mxCell id="TjqZ6nq2tmqOSgpM_wzL-51" value="Double valorParcelas" style="text;strokeColor=none;fillColor=none;align=left;verticalAlign=middle;spacingLeft=4;spacingRight=4;overflow=hidden;points=[[0,0.5],[1,0.5]];portConstraint=eastwest;rotatable=0;whiteSpace=wrap;html=1;" vertex="1" parent="TjqZ6nq2tmqOSgpM_wzL-44">
          <mxGeometry y="210" width="210" height="30" as="geometry" />
        </mxCell>
        <mxCell id="TjqZ6nq2tmqOSgpM_wzL-52" value="Double valorTotal" style="text;strokeColor=none;fillColor=none;align=left;verticalAlign=middle;spacingLeft=4;spacingRight=4;overflow=hidden;points=[[0,0.5],[1,0.5]];portConstraint=eastwest;rotatable=0;whiteSpace=wrap;html=1;" vertex="1" parent="TjqZ6nq2tmqOSgpM_wzL-44">
          <mxGeometry y="240" width="210" height="30" as="geometry" />
        </mxCell>
        <mxCell id="TjqZ6nq2tmqOSgpM_wzL-53" value="FORMAPAGAMENTO formapagamento" style="text;strokeColor=none;fillColor=none;align=left;verticalAlign=middle;spacingLeft=4;spacingRight=4;overflow=hidden;points=[[0,0.5],[1,0.5]];portConstraint=eastwest;rotatable=0;whiteSpace=wrap;html=1;" vertex="1" parent="TjqZ6nq2tmqOSgpM_wzL-44">
          <mxGeometry y="270" width="210" height="30" as="geometry" />
        </mxCell>
        <mxCell id="TjqZ6nq2tmqOSgpM_wzL-54" value="LocalDateTime dataPagamento" style="text;strokeColor=none;fillColor=none;align=left;verticalAlign=middle;spacingLeft=4;spacingRight=4;overflow=hidden;points=[[0,0.5],[1,0.5]];portConstraint=eastwest;rotatable=0;whiteSpace=wrap;html=1;" vertex="1" parent="TjqZ6nq2tmqOSgpM_wzL-44">
          <mxGeometry y="300" width="210" height="30" as="geometry" />
        </mxCell>
        <mxCell id="TjqZ6nq2tmqOSgpM_wzL-55" value="RelatorioMensalDTO" style="swimlane;fontStyle=0;childLayout=stackLayout;horizontal=1;startSize=30;horizontalStack=0;resizeParent=1;resizeParentMax=0;resizeLast=0;collapsible=1;marginBottom=0;whiteSpace=wrap;html=1;" vertex="1" parent="TjqZ6nq2tmqOSgpM_wzL-28">
          <mxGeometry x="389" y="442" width="316" height="300" as="geometry" />
        </mxCell>
        <mxCell id="TjqZ6nq2tmqOSgpM_wzL-56" value="String dataReferencia" style="text;strokeColor=none;fillColor=none;align=left;verticalAlign=middle;spacingLeft=4;spacingRight=4;overflow=hidden;points=[[0,0.5],[1,0.5]];portConstraint=eastwest;rotatable=0;whiteSpace=wrap;html=1;" vertex="1" parent="TjqZ6nq2tmqOSgpM_wzL-55">
          <mxGeometry y="30" width="316" height="30" as="geometry" />
        </mxCell>
        <mxCell id="TjqZ6nq2tmqOSgpM_wzL-57" value="List&amp;lt;VendaResponseFinalizadaDTO&amp;gt; vendasFinalizadas" style="text;strokeColor=none;fillColor=none;align=left;verticalAlign=middle;spacingLeft=4;spacingRight=4;overflow=hidden;points=[[0,0.5],[1,0.5]];portConstraint=eastwest;rotatable=0;whiteSpace=wrap;html=1;" vertex="1" parent="TjqZ6nq2tmqOSgpM_wzL-55">
          <mxGeometry y="60" width="316" height="30" as="geometry" />
        </mxCell>
        <mxCell id="TjqZ6nq2tmqOSgpM_wzL-58" value="String totalVendasDebito" style="text;strokeColor=none;fillColor=none;align=left;verticalAlign=middle;spacingLeft=4;spacingRight=4;overflow=hidden;points=[[0,0.5],[1,0.5]];portConstraint=eastwest;rotatable=0;whiteSpace=wrap;html=1;" vertex="1" parent="TjqZ6nq2tmqOSgpM_wzL-55">
          <mxGeometry y="90" width="316" height="30" as="geometry" />
        </mxCell>
        <mxCell id="TjqZ6nq2tmqOSgpM_wzL-59" value="String totalVendasCredito" style="text;strokeColor=none;fillColor=none;align=left;verticalAlign=middle;spacingLeft=4;spacingRight=4;overflow=hidden;points=[[0,0.5],[1,0.5]];portConstraint=eastwest;rotatable=0;whiteSpace=wrap;html=1;" vertex="1" parent="TjqZ6nq2tmqOSgpM_wzL-55">
          <mxGeometry y="120" width="316" height="30" as="geometry" />
        </mxCell>
        <mxCell id="TjqZ6nq2tmqOSgpM_wzL-60" value="String totalVendasDinheiro" style="text;strokeColor=none;fillColor=none;align=left;verticalAlign=middle;spacingLeft=4;spacingRight=4;overflow=hidden;points=[[0,0.5],[1,0.5]];portConstraint=eastwest;rotatable=0;whiteSpace=wrap;html=1;" vertex="1" parent="TjqZ6nq2tmqOSgpM_wzL-55">
          <mxGeometry y="150" width="316" height="30" as="geometry" />
        </mxCell>
        <mxCell id="TjqZ6nq2tmqOSgpM_wzL-61" value="String totalVendasPix" style="text;strokeColor=none;fillColor=none;align=left;verticalAlign=middle;spacingLeft=4;spacingRight=4;overflow=hidden;points=[[0,0.5],[1,0.5]];portConstraint=eastwest;rotatable=0;whiteSpace=wrap;html=1;" vertex="1" parent="TjqZ6nq2tmqOSgpM_wzL-55">
          <mxGeometry y="180" width="316" height="30" as="geometry" />
        </mxCell>
        <mxCell id="TjqZ6nq2tmqOSgpM_wzL-62" value="String totalVendasRecebida" style="text;strokeColor=none;fillColor=none;align=left;verticalAlign=middle;spacingLeft=4;spacingRight=4;overflow=hidden;points=[[0,0.5],[1,0.5]];portConstraint=eastwest;rotatable=0;whiteSpace=wrap;html=1;" vertex="1" parent="TjqZ6nq2tmqOSgpM_wzL-55">
          <mxGeometry y="210" width="316" height="30" as="geometry" />
        </mxCell>
        <mxCell id="TjqZ6nq2tmqOSgpM_wzL-63" value="String totalDebitos" style="text;strokeColor=none;fillColor=none;align=left;verticalAlign=middle;spacingLeft=4;spacingRight=4;overflow=hidden;points=[[0,0.5],[1,0.5]];portConstraint=eastwest;rotatable=0;whiteSpace=wrap;html=1;" vertex="1" parent="TjqZ6nq2tmqOSgpM_wzL-55">
          <mxGeometry y="240" width="316" height="30" as="geometry" />
        </mxCell>
        <mxCell id="TjqZ6nq2tmqOSgpM_wzL-64" value="List&amp;lt;BoletosResponseDTO&amp;gt; boletos" style="text;strokeColor=none;fillColor=none;align=left;verticalAlign=middle;spacingLeft=4;spacingRight=4;overflow=hidden;points=[[0,0.5],[1,0.5]];portConstraint=eastwest;rotatable=0;whiteSpace=wrap;html=1;" vertex="1" parent="TjqZ6nq2tmqOSgpM_wzL-55">
          <mxGeometry y="270" width="316" height="30" as="geometry" />
        </mxCell>
        <mxCell id="TjqZ6nq2tmqOSgpM_wzL-65" value="PagamentoResponseDTO" style="swimlane;fontStyle=0;childLayout=stackLayout;horizontal=1;startSize=30;horizontalStack=0;resizeParent=1;resizeParentMax=0;resizeLast=0;collapsible=1;marginBottom=0;whiteSpace=wrap;html=1;" vertex="1" parent="TjqZ6nq2tmqOSgpM_wzL-28">
          <mxGeometry x="537" y="37" width="232" height="390" as="geometry" />
        </mxCell>
        <mxCell id="TjqZ6nq2tmqOSgpM_wzL-66" value="Long id" style="text;strokeColor=none;fillColor=none;align=left;verticalAlign=middle;spacingLeft=4;spacingRight=4;overflow=hidden;points=[[0,0.5],[1,0.5]];portConstraint=eastwest;rotatable=0;whiteSpace=wrap;html=1;" vertex="1" parent="TjqZ6nq2tmqOSgpM_wzL-65">
          <mxGeometry y="30" width="232" height="30" as="geometry" />
        </mxCell>
        <mxCell id="TjqZ6nq2tmqOSgpM_wzL-67" value="FORMAPAGAMENTO formaPagamento" style="text;strokeColor=none;fillColor=none;align=left;verticalAlign=middle;spacingLeft=4;spacingRight=4;overflow=hidden;points=[[0,0.5],[1,0.5]];portConstraint=eastwest;rotatable=0;whiteSpace=wrap;html=1;" vertex="1" parent="TjqZ6nq2tmqOSgpM_wzL-65">
          <mxGeometry y="60" width="232" height="30" as="geometry" />
        </mxCell>
        <mxCell id="TjqZ6nq2tmqOSgpM_wzL-68" value="Boolean pago" style="text;strokeColor=none;fillColor=none;align=left;verticalAlign=middle;spacingLeft=4;spacingRight=4;overflow=hidden;points=[[0,0.5],[1,0.5]];portConstraint=eastwest;rotatable=0;whiteSpace=wrap;html=1;" vertex="1" parent="TjqZ6nq2tmqOSgpM_wzL-65">
          <mxGeometry y="90" width="232" height="30" as="geometry" />
        </mxCell>
        <mxCell id="TjqZ6nq2tmqOSgpM_wzL-69" value="String valorTotal" style="text;strokeColor=none;fillColor=none;align=left;verticalAlign=middle;spacingLeft=4;spacingRight=4;overflow=hidden;points=[[0,0.5],[1,0.5]];portConstraint=eastwest;rotatable=0;whiteSpace=wrap;html=1;" vertex="1" parent="TjqZ6nq2tmqOSgpM_wzL-65">
          <mxGeometry y="120" width="232" height="30" as="geometry" />
        </mxCell>
        <mxCell id="TjqZ6nq2tmqOSgpM_wzL-70" value="String valorTotal" style="text;strokeColor=none;fillColor=none;align=left;verticalAlign=middle;spacingLeft=4;spacingRight=4;overflow=hidden;points=[[0,0.5],[1,0.5]];portConstraint=eastwest;rotatable=0;whiteSpace=wrap;html=1;" vertex="1" parent="TjqZ6nq2tmqOSgpM_wzL-65">
          <mxGeometry y="150" width="232" height="30" as="geometry" />
        </mxCell>
        <mxCell id="TjqZ6nq2tmqOSgpM_wzL-71" value="Double parcelas" style="text;strokeColor=none;fillColor=none;align=left;verticalAlign=middle;spacingLeft=4;spacingRight=4;overflow=hidden;points=[[0,0.5],[1,0.5]];portConstraint=eastwest;rotatable=0;whiteSpace=wrap;html=1;" vertex="1" parent="TjqZ6nq2tmqOSgpM_wzL-65">
          <mxGeometry y="180" width="232" height="30" as="geometry" />
        </mxCell>
        <mxCell id="TjqZ6nq2tmqOSgpM_wzL-72" value="Double valorParcela" style="text;strokeColor=none;fillColor=none;align=left;verticalAlign=middle;spacingLeft=4;spacingRight=4;overflow=hidden;points=[[0,0.5],[1,0.5]];portConstraint=eastwest;rotatable=0;whiteSpace=wrap;html=1;" vertex="1" parent="TjqZ6nq2tmqOSgpM_wzL-65">
          <mxGeometry y="210" width="232" height="30" as="geometry" />
        </mxCell>
        <mxCell id="TjqZ6nq2tmqOSgpM_wzL-73" value="Double valorPago" style="text;strokeColor=none;fillColor=none;align=left;verticalAlign=middle;spacingLeft=4;spacingRight=4;overflow=hidden;points=[[0,0.5],[1,0.5]];portConstraint=eastwest;rotatable=0;whiteSpace=wrap;html=1;" vertex="1" parent="TjqZ6nq2tmqOSgpM_wzL-65">
          <mxGeometry y="240" width="232" height="30" as="geometry" />
        </mxCell>
        <mxCell id="TjqZ6nq2tmqOSgpM_wzL-74" value="Double valorDesconto" style="text;strokeColor=none;fillColor=none;align=left;verticalAlign=middle;spacingLeft=4;spacingRight=4;overflow=hidden;points=[[0,0.5],[1,0.5]];portConstraint=eastwest;rotatable=0;whiteSpace=wrap;html=1;" vertex="1" parent="TjqZ6nq2tmqOSgpM_wzL-65">
          <mxGeometry y="270" width="232" height="30" as="geometry" />
        </mxCell>
        <mxCell id="TjqZ6nq2tmqOSgpM_wzL-75" value="Double valorTroco" style="text;strokeColor=none;fillColor=none;align=left;verticalAlign=middle;spacingLeft=4;spacingRight=4;overflow=hidden;points=[[0,0.5],[1,0.5]];portConstraint=eastwest;rotatable=0;whiteSpace=wrap;html=1;" vertex="1" parent="TjqZ6nq2tmqOSgpM_wzL-65">
          <mxGeometry y="300" width="232" height="30" as="geometry" />
        </mxCell>
        <mxCell id="TjqZ6nq2tmqOSgpM_wzL-76" value="LocalDateTime dataPagamento" style="text;strokeColor=none;fillColor=none;align=left;verticalAlign=middle;spacingLeft=4;spacingRight=4;overflow=hidden;points=[[0,0.5],[1,0.5]];portConstraint=eastwest;rotatable=0;whiteSpace=wrap;html=1;" vertex="1" parent="TjqZ6nq2tmqOSgpM_wzL-65">
          <mxGeometry y="330" width="232" height="30" as="geometry" />
        </mxCell>
        <mxCell id="TjqZ6nq2tmqOSgpM_wzL-77" value="LocalDateTime dataSistema" style="text;strokeColor=none;fillColor=none;align=left;verticalAlign=middle;spacingLeft=4;spacingRight=4;overflow=hidden;points=[[0,0.5],[1,0.5]];portConstraint=eastwest;rotatable=0;whiteSpace=wrap;html=1;" vertex="1" parent="TjqZ6nq2tmqOSgpM_wzL-65">
          <mxGeometry y="360" width="232" height="30" as="geometry" />
        </mxCell>
        <mxCell id="TjqZ6nq2tmqOSgpM_wzL-78" value="RelatorioDiarioDTO" style="swimlane;fontStyle=0;childLayout=stackLayout;horizontal=1;startSize=30;horizontalStack=0;resizeParent=1;resizeParentMax=0;resizeLast=0;collapsible=1;marginBottom=0;whiteSpace=wrap;html=1;" vertex="1" parent="TjqZ6nq2tmqOSgpM_wzL-28">
          <mxGeometry x="10" y="374" width="321" height="300" as="geometry" />
        </mxCell>
        <mxCell id="TjqZ6nq2tmqOSgpM_wzL-79" value="int ano" style="text;strokeColor=none;fillColor=none;align=left;verticalAlign=middle;spacingLeft=4;spacingRight=4;overflow=hidden;points=[[0,0.5],[1,0.5]];portConstraint=eastwest;rotatable=0;whiteSpace=wrap;html=1;" vertex="1" parent="TjqZ6nq2tmqOSgpM_wzL-78">
          <mxGeometry y="30" width="321" height="30" as="geometry" />
        </mxCell>
        <mxCell id="TjqZ6nq2tmqOSgpM_wzL-80" value="List&amp;lt;VendaResponseFinalizadaDTO&amp;gt; vendasFinalizadas" style="text;strokeColor=none;fillColor=none;align=left;verticalAlign=middle;spacingLeft=4;spacingRight=4;overflow=hidden;points=[[0,0.5],[1,0.5]];portConstraint=eastwest;rotatable=0;whiteSpace=wrap;html=1;" vertex="1" parent="TjqZ6nq2tmqOSgpM_wzL-78">
          <mxGeometry y="60" width="321" height="30" as="geometry" />
        </mxCell>
        <mxCell id="TjqZ6nq2tmqOSgpM_wzL-81" value="String totalVendasDebito" style="text;strokeColor=none;fillColor=none;align=left;verticalAlign=middle;spacingLeft=4;spacingRight=4;overflow=hidden;points=[[0,0.5],[1,0.5]];portConstraint=eastwest;rotatable=0;whiteSpace=wrap;html=1;" vertex="1" parent="TjqZ6nq2tmqOSgpM_wzL-78">
          <mxGeometry y="90" width="321" height="30" as="geometry" />
        </mxCell>
        <mxCell id="TjqZ6nq2tmqOSgpM_wzL-82" value="String totalVendasCredito" style="text;strokeColor=none;fillColor=none;align=left;verticalAlign=middle;spacingLeft=4;spacingRight=4;overflow=hidden;points=[[0,0.5],[1,0.5]];portConstraint=eastwest;rotatable=0;whiteSpace=wrap;html=1;" vertex="1" parent="TjqZ6nq2tmqOSgpM_wzL-78">
          <mxGeometry y="120" width="321" height="30" as="geometry" />
        </mxCell>
        <mxCell id="TjqZ6nq2tmqOSgpM_wzL-83" value="String totalVendasDinheiro" style="text;strokeColor=none;fillColor=none;align=left;verticalAlign=middle;spacingLeft=4;spacingRight=4;overflow=hidden;points=[[0,0.5],[1,0.5]];portConstraint=eastwest;rotatable=0;whiteSpace=wrap;html=1;" vertex="1" parent="TjqZ6nq2tmqOSgpM_wzL-78">
          <mxGeometry y="150" width="321" height="30" as="geometry" />
        </mxCell>
        <mxCell id="TjqZ6nq2tmqOSgpM_wzL-84" value="String totalVendasPix" style="text;strokeColor=none;fillColor=none;align=left;verticalAlign=middle;spacingLeft=4;spacingRight=4;overflow=hidden;points=[[0,0.5],[1,0.5]];portConstraint=eastwest;rotatable=0;whiteSpace=wrap;html=1;" vertex="1" parent="TjqZ6nq2tmqOSgpM_wzL-78">
          <mxGeometry y="180" width="321" height="30" as="geometry" />
        </mxCell>
        <mxCell id="TjqZ6nq2tmqOSgpM_wzL-85" value="String totalVendasRecebida" style="text;strokeColor=none;fillColor=none;align=left;verticalAlign=middle;spacingLeft=4;spacingRight=4;overflow=hidden;points=[[0,0.5],[1,0.5]];portConstraint=eastwest;rotatable=0;whiteSpace=wrap;html=1;" vertex="1" parent="TjqZ6nq2tmqOSgpM_wzL-78">
          <mxGeometry y="210" width="321" height="30" as="geometry" />
        </mxCell>
        <mxCell id="TjqZ6nq2tmqOSgpM_wzL-86" value="String totalDebitos" style="text;strokeColor=none;fillColor=none;align=left;verticalAlign=middle;spacingLeft=4;spacingRight=4;overflow=hidden;points=[[0,0.5],[1,0.5]];portConstraint=eastwest;rotatable=0;whiteSpace=wrap;html=1;" vertex="1" parent="TjqZ6nq2tmqOSgpM_wzL-78">
          <mxGeometry y="240" width="321" height="30" as="geometry" />
        </mxCell>
        <mxCell id="TjqZ6nq2tmqOSgpM_wzL-87" value="List&amp;lt;BoletosResponseDTO&amp;gt; boletos" style="text;strokeColor=none;fillColor=none;align=left;verticalAlign=middle;spacingLeft=4;spacingRight=4;overflow=hidden;points=[[0,0.5],[1,0.5]];portConstraint=eastwest;rotatable=0;whiteSpace=wrap;html=1;" vertex="1" parent="TjqZ6nq2tmqOSgpM_wzL-78">
          <mxGeometry y="270" width="321" height="30" as="geometry" />
        </mxCell>
        <mxCell id="TjqZ6nq2tmqOSgpM_wzL-88" value="RelatorioAnualDTO" style="swimlane;fontStyle=0;childLayout=stackLayout;horizontal=1;startSize=30;horizontalStack=0;resizeParent=1;resizeParentMax=0;resizeLast=0;collapsible=1;marginBottom=0;whiteSpace=wrap;html=1;" vertex="1" parent="TjqZ6nq2tmqOSgpM_wzL-28">
          <mxGeometry x="24" y="709" width="318" height="300" as="geometry" />
        </mxCell>
        <mxCell id="TjqZ6nq2tmqOSgpM_wzL-89" value="int ano" style="text;strokeColor=none;fillColor=none;align=left;verticalAlign=middle;spacingLeft=4;spacingRight=4;overflow=hidden;points=[[0,0.5],[1,0.5]];portConstraint=eastwest;rotatable=0;whiteSpace=wrap;html=1;" vertex="1" parent="TjqZ6nq2tmqOSgpM_wzL-88">
          <mxGeometry y="30" width="318" height="30" as="geometry" />
        </mxCell>
        <mxCell id="TjqZ6nq2tmqOSgpM_wzL-90" value="List&amp;lt;VendaResponseFinalizadaDTO&amp;gt; vendasFinalizadas" style="text;strokeColor=none;fillColor=none;align=left;verticalAlign=middle;spacingLeft=4;spacingRight=4;overflow=hidden;points=[[0,0.5],[1,0.5]];portConstraint=eastwest;rotatable=0;whiteSpace=wrap;html=1;" vertex="1" parent="TjqZ6nq2tmqOSgpM_wzL-88">
          <mxGeometry y="60" width="318" height="30" as="geometry" />
        </mxCell>
        <mxCell id="TjqZ6nq2tmqOSgpM_wzL-91" value="String totalVendasDebito" style="text;strokeColor=none;fillColor=none;align=left;verticalAlign=middle;spacingLeft=4;spacingRight=4;overflow=hidden;points=[[0,0.5],[1,0.5]];portConstraint=eastwest;rotatable=0;whiteSpace=wrap;html=1;" vertex="1" parent="TjqZ6nq2tmqOSgpM_wzL-88">
          <mxGeometry y="90" width="318" height="30" as="geometry" />
        </mxCell>
        <mxCell id="TjqZ6nq2tmqOSgpM_wzL-92" value="String totalVendasCredito" style="text;strokeColor=none;fillColor=none;align=left;verticalAlign=middle;spacingLeft=4;spacingRight=4;overflow=hidden;points=[[0,0.5],[1,0.5]];portConstraint=eastwest;rotatable=0;whiteSpace=wrap;html=1;" vertex="1" parent="TjqZ6nq2tmqOSgpM_wzL-88">
          <mxGeometry y="120" width="318" height="30" as="geometry" />
        </mxCell>
        <mxCell id="TjqZ6nq2tmqOSgpM_wzL-93" value="String totalVendasDinheiro" style="text;strokeColor=none;fillColor=none;align=left;verticalAlign=middle;spacingLeft=4;spacingRight=4;overflow=hidden;points=[[0,0.5],[1,0.5]];portConstraint=eastwest;rotatable=0;whiteSpace=wrap;html=1;" vertex="1" parent="TjqZ6nq2tmqOSgpM_wzL-88">
          <mxGeometry y="150" width="318" height="30" as="geometry" />
        </mxCell>
        <mxCell id="TjqZ6nq2tmqOSgpM_wzL-94" value="String totalVendasPix" style="text;strokeColor=none;fillColor=none;align=left;verticalAlign=middle;spacingLeft=4;spacingRight=4;overflow=hidden;points=[[0,0.5],[1,0.5]];portConstraint=eastwest;rotatable=0;whiteSpace=wrap;html=1;" vertex="1" parent="TjqZ6nq2tmqOSgpM_wzL-88">
          <mxGeometry y="180" width="318" height="30" as="geometry" />
        </mxCell>
        <mxCell id="TjqZ6nq2tmqOSgpM_wzL-95" value="String totalVendasRecebida" style="text;strokeColor=none;fillColor=none;align=left;verticalAlign=middle;spacingLeft=4;spacingRight=4;overflow=hidden;points=[[0,0.5],[1,0.5]];portConstraint=eastwest;rotatable=0;whiteSpace=wrap;html=1;" vertex="1" parent="TjqZ6nq2tmqOSgpM_wzL-88">
          <mxGeometry y="210" width="318" height="30" as="geometry" />
        </mxCell>
        <mxCell id="TjqZ6nq2tmqOSgpM_wzL-96" value="String totalDebitos" style="text;strokeColor=none;fillColor=none;align=left;verticalAlign=middle;spacingLeft=4;spacingRight=4;overflow=hidden;points=[[0,0.5],[1,0.5]];portConstraint=eastwest;rotatable=0;whiteSpace=wrap;html=1;" vertex="1" parent="TjqZ6nq2tmqOSgpM_wzL-88">
          <mxGeometry y="240" width="318" height="30" as="geometry" />
        </mxCell>
        <mxCell id="TjqZ6nq2tmqOSgpM_wzL-97" value="List&amp;lt;BoletosResponseDTO&amp;gt; boletos" style="text;strokeColor=none;fillColor=none;align=left;verticalAlign=middle;spacingLeft=4;spacingRight=4;overflow=hidden;points=[[0,0.5],[1,0.5]];portConstraint=eastwest;rotatable=0;whiteSpace=wrap;html=1;" vertex="1" parent="TjqZ6nq2tmqOSgpM_wzL-88">
          <mxGeometry y="270" width="318" height="30" as="geometry" />
        </mxCell>
        <mxCell id="oZuFp4n1EtECYZ5Csp7y-0" value="&lt;font style=&quot;font-size: 20px;&quot;&gt;MS_FINANCEIRO RESPONSE DTO&lt;/font&gt;" style="text;html=1;align=center;verticalAlign=middle;whiteSpace=wrap;rounded=0;" vertex="1" parent="TjqZ6nq2tmqOSgpM_wzL-1">
          <mxGeometry x="36" y="9" width="345" height="30" as="geometry" />
        </mxCell>
      </root>
    </mxGraphModel>
  </diagram>
</mxfile>
